<?xml version="1.0" encoding="utf-8" standalone="no"?>
<!DOCTYPE svg PUBLIC "-//W3C//DTD SVG 1.1//EN"
  "http://www.w3.org/Graphics/SVG/1.1/DTD/svg11.dtd">
<svg xmlns:xlink="http://www.w3.org/1999/xlink" width="900pt" height="374.4pt" viewBox="0 0 900 374.4" xmlns="http://www.w3.org/2000/svg" version="1.1">
 <metadata>
  <rdf:RDF xmlns:dc="http://purl.org/dc/elements/1.1/" xmlns:cc="http://creativecommons.org/ns#" xmlns:rdf="http://www.w3.org/1999/02/22-rdf-syntax-ns#">
   <cc:Work>
    <dc:type rdf:resource="http://purl.org/dc/dcmitype/StillImage"/>
    <dc:format>image/svg+xml</dc:format>
    <dc:creator>
     <cc:Agent>
      <dc:title>oceangravity</dc:title>
     </cc:Agent>
    </dc:creator>
   </cc:Work>
  </rdf:RDF>
 </metadata>
 <defs>
  <style type="text/css">*{stroke-linejoin: round; stroke-linecap: butt}</style>
 </defs>
 <g id="figure_1">
  <g id="patch_1">
   <path d="M 0 374.4
L 900 374.4
L 900 0
L 0 0
z
" style="fill: #ffffff"/>
  </g>
  <g id="axes_1">
   <g id="patch_2">
    <path d="M 16.343516 234.477938
L 163.119557 234.477938
Q 164.453885 234.477938 164.453885 233.24994
L 164.453885 141.15006
Q 164.453885 139.922062 163.119557 139.922062
L 16.343516 139.922062
Q 15.009189 139.922062 15.009189 141.15006
L 15.009189 233.24994
Q 15.009189 234.477938 16.343516 234.477938
z
" clip-path="url(#p1ef886dc52)" style="fill: #d7ecff; stroke: #263238; stroke-width: 1.2; stroke-linejoin: miter"/>
   </g>
   <g id="patch_3">
    <path d="M 203.149386 222.197954
L 329.910512 222.197954
Q 331.24484 222.197954 331.24484 220.969956
L 331.24484 153.430044
Q 331.24484 152.202046 329.910512 152.202046
L 203.149386 152.202046
Q 201.815059 152.202046 201.815059 153.430044
L 201.815059 220.969956
Q 201.815059 222.197954 203.149386 222.197954
z
" clip-path="url(#p1ef886dc52)" style="fill: #e8f5e9; stroke: #263238; stroke-width: 1.2; stroke-linejoin: miter"/>
   </g>
   <g id="patch_4">
    <path d="M 165.118117 187.2
Q 183.133295 187.2 199.583226 187.2
" clip-path="url(#p1ef886dc52)" style="fill: none; stroke: #455a64; stroke-width: 1.4; stroke-linecap: round"/>
    <path d="M 194.783226 184.8
L 199.583226 187.2
L 194.783226 189.6
z
" clip-path="url(#p1ef886dc52)" style="fill: #455a64; stroke: #455a64; stroke-width: 1.4; stroke-linecap: round"/>
   </g>
   <g id="patch_5">
    <path d="M 376.61198 111.678098
L 526.723839 111.678098
Q 528.058167 111.678098 528.058167 110.4501
L 528.058167 49.05018
Q 528.058167 47.822182 526.723839 47.822182
L 376.61198 47.822182
Q 375.277652 47.822182 375.277652 49.05018
L 375.277652 110.4501
Q 375.277652 111.678098 376.61198 111.678098
z
" clip-path="url(#p1ef886dc52)" style="fill: #fff3cd; stroke: #263238; stroke-width: 1.2; stroke-linejoin: miter"/>
   </g>
   <g id="patch_6">
    <path d="M 576.761126 111.678098
L 733.544624 111.678098
Q 734.878952 111.678098 734.878952 110.4501
L 734.878952 49.05018
Q 734.878952 47.822182 733.544624 47.822182
L 576.761126 47.822182
Q 575.426798 47.822182 575.426798 49.05018
L 575.426798 110.4501
Q 575.426798 111.678098 576.761126 111.678098
z
" clip-path="url(#p1ef886dc52)" style="fill: #ffe0b2; stroke: #263238; stroke-width: 1.2; stroke-linejoin: miter"/>
   </g>
   <g id="patch_7">
    <path d="M 330.863982 170.095041
Q 353.261206 128.870149 374.9112 89.020629
" clip-path="url(#p1ef886dc52)" style="fill: none; stroke: #455a64; stroke-width: 1.4; stroke-linecap: round"/>
    <path d="M 370.510875 92.092622
L 374.9112 89.020629
L 374.728599 94.384085
z
" clip-path="url(#p1ef886dc52)" style="fill: #455a64; stroke: #455a64; stroke-width: 1.4; stroke-linecap: round"/>
   </g>
   <g id="patch_8">
    <path d="M 528.724231 79.75014
Q 551.741421 79.75014 573.193364 79.75014
" clip-path="url(#p1ef886dc52)" style="fill: none; stroke: #455a64; stroke-width: 1.4; stroke-linecap: round"/>
    <path d="M 568.393364 77.35014
L 573.193364 79.75014
L 568.393364 82.15014
z
" clip-path="url(#p1ef886dc52)" style="fill: #455a64; stroke: #455a64; stroke-width: 1.4; stroke-linecap: round"/>
   </g>
   <g id="patch_9">
    <path d="M 376.61198 222.197954
L 526.723839 222.197954
Q 528.058167 222.197954 528.058167 220.969956
L 528.058167 159.570036
Q 528.058167 158.342038 526.723839 158.342038
L 376.61198 158.342038
Q 375.277652 158.342038 375.277652 159.570036
L 375.277652 220.969956
Q 375.277652 222.197954 376.61198 222.197954
z
" clip-path="url(#p1ef886dc52)" style="fill: #e1bee7; stroke: #263238; stroke-width: 1.2; stroke-linejoin: miter"/>
   </g>
   <g id="patch_10">
    <path d="M 576.761126 222.197954
L 733.544624 222.197954
Q 734.878952 222.197954 734.878952 220.969956
L 734.878952 159.570036
Q 734.878952 158.342038 733.544624 158.342038
L 576.761126 158.342038
Q 575.426798 158.342038 575.426798 159.570036
L 575.426798 220.969956
Q 575.426798 222.197954 576.761126 222.197954
z
" clip-path="url(#p1ef886dc52)" style="fill: #f3e5f5; stroke: #263238; stroke-width: 1.2; stroke-linejoin: miter"/>
   </g>
   <g id="patch_11">
    <path d="M 331.908665 187.2
Q 353.260337 187.2 373.046761 187.2
" clip-path="url(#p1ef886dc52)" style="fill: none; stroke: #6a1b9a; stroke-width: 1.4; stroke-linecap: round"/>
    <path d="M 368.246761 184.8
L 373.046761 187.2
L 368.246761 189.6
z
" clip-path="url(#p1ef886dc52)" style="fill: #6a1b9a; stroke: #6a1b9a; stroke-width: 1.4; stroke-linecap: round"/>
   </g>
   <g id="patch_12">
    <path d="M 528.724231 187.2
Q 551.741421 187.2 573.193364 187.2
" clip-path="url(#p1ef886dc52)" style="fill: none; stroke: #6a1b9a; stroke-width: 1.4; stroke-linecap: round"/>
    <path d="M 568.393364 184.8
L 573.193364 187.2
L 568.393364 189.6
z
" clip-path="url(#p1ef886dc52)" style="fill: #6a1b9a; stroke: #6a1b9a; stroke-width: 1.4; stroke-linecap: round"/>
   </g>
   <g id="patch_13">
    <path d="M 376.61198 332.71781
L 526.723839 332.71781
Q 528.058167 332.71781 528.058167 331.489812
L 528.058167 276.229884
Q 528.058167 275.001886 526.723839 275.001886
L 376.61198 275.001886
Q 375.277652 275.001886 375.277652 276.229884
L 375.277652 331.489812
Q 375.277652 332.71781 376.61198 332.71781
z
" clip-path="url(#p1ef886dc52)" style="fill: #d1c4e9; stroke-dasharray: 4.44,1.92; stroke-dashoffset: 0; stroke: #263238; stroke-width: 1.2; stroke-linejoin: miter"/>
   </g>
   <g id="patch_14">
    <path d="M 576.761126 332.71781
L 733.544624 332.71781
Q 734.878952 332.71781 734.878952 331.489812
L 734.878952 276.229884
Q 734.878952 275.001886 733.544624 275.001886
L 576.761126 275.001886
Q 575.426798 275.001886 575.426798 276.229884
L 575.426798 331.489812
Q 575.426798 332.71781 576.761126 332.71781
z
" clip-path="url(#p1ef886dc52)" style="fill: #ede7f6; stroke-dasharray: 4.44,1.92; stroke-dashoffset: 0; stroke: #263238; stroke-width: 1.2; stroke-linejoin: miter"/>
   </g>
   <g id="patch_15">
    <path d="M 330.769917 204.3578
Q 353.262158 251.671835 375.082379 297.572227
" clip-path="url(#p1ef886dc52)" style="fill: none; stroke-dasharray: 5.18,2.24; stroke-dashoffset: 0; stroke: #5e35b1; stroke-width: 1.4; stroke-linecap: round"/>
    <path d="M 375.1891 292.206726
L 375.082379 297.572227
L 370.85401 294.267549
z
" clip-path="url(#p1ef886dc52)" style="fill: #5e35b1; stroke-dasharray: 5.18,2.24; stroke-dashoffset: 0; stroke: #5e35b1; stroke-width: 1.4; stroke-linecap: round"/>
   </g>
   <g id="patch_16">
    <path d="M 528.724231 303.859848
Q 551.741421 303.859848 573.193364 303.859848
" clip-path="url(#p1ef886dc52)" style="fill: none; stroke-dasharray: 5.18,2.24; stroke-dashoffset: 0; stroke: #5e35b1; stroke-width: 1.4; stroke-linecap: round"/>
    <path d="M 568.393364 301.459848
L 573.193364 303.859848
L 568.393364 306.259848
z
" clip-path="url(#p1ef886dc52)" style="fill: #5e35b1; stroke-dasharray: 5.18,2.24; stroke-dashoffset: 0; stroke: #5e35b1; stroke-width: 1.4; stroke-linecap: round"/>
   </g>
   <g id="patch_17">
    <path d="M 760.231177 142.378058
L 876.984845 142.378058
Q 878.319173 142.378058 878.319173 141.15006
L 878.319173 21.420216
Q 878.319173 20.192218 876.984845 20.192218
L 760.231177 20.192218
Q 758.896849 20.192218 758.896849 21.420216
L 758.896849 141.15006
Q 758.896849 142.378058 760.231177 142.378058
z
" clip-path="url(#p1ef886dc52)" style="fill: #ffcdd2; stroke: #263238; stroke-width: 1.2; stroke-linejoin: miter"/>
   </g>
   <g id="patch_18">
    <path d="M 735.541555 79.75014
Q 746.887268 79.75014 756.667733 79.75014
" clip-path="url(#p1ef886dc52)" style="fill: none; stroke: #c62828; stroke-width: 1.4; stroke-linecap: round"/>
    <path d="M 751.867733 77.35014
L 756.667733 79.75014
L 751.867733 82.15014
z
" clip-path="url(#p1ef886dc52)" style="fill: #c62828; stroke: #c62828; stroke-width: 1.4; stroke-linecap: round"/>
   </g>
   <g id="text_1">
    <!-- Ocean processes -->
    <g transform="translate(51.500521 178.696055) scale(0.09 -0.09)">
     <defs>
      <path id="DejaVuSans-32" d="M 2522 4238
Q 1834 4238 1429 3725
Q 1025 3213 1025 2328
Q 1025 1447 1429 934
Q 1834 422 2522 422
Q 3209 422 3611 934
Q 4013 1447 4013 2328
Q 4013 3213 3611 3725
Q 3209 4238 2522 4238
z
M 2522 4750
Q 3503 4750 4090 4092
Q 4678 3434 4678 2328
Q 4678 1225 4090 567
Q 3503 -91 2522 -91
Q 1538 -91 948 565
Q 359 1222 359 2328
Q 359 3434 948 4092
Q 1538 4750 2522 4750
z
" transform="scale(0.015625)"/>
      <path id="DejaVuSans-46" d="M 3122 3366
L 3122 2828
Q 2878 2963 2633 3030
Q 2388 3097 2138 3097
Q 1578 3097 1268 2742
Q 959 2388 959 1747
Q 959 1106 1268 751
Q 1578 397 2138 397
Q 2388 397 2633 464
Q 2878 531 3122 666
L 3122 134
Q 2881 22 2623 -34
Q 2366 -91 2075 -91
Q 1284 -91 818 406
Q 353 903 353 1747
Q 353 2603 823 3093
Q 1294 3584 2113 3584
Q 2378 3584 2631 3529
Q 2884 3475 3122 3366
z
" transform="scale(0.015625)"/>
      <path id="DejaVuSans-48" d="M 3597 1894
L 3597 1613
L 953 1613
Q 991 1019 1311 708
Q 1631 397 2203 397
Q 2534 397 2845 478
Q 3156 559 3463 722
L 3463 178
Q 3153 47 2828 -22
Q 2503 -91 2169 -91
Q 1331 -91 842 396
Q 353 884 353 1716
Q 353 2575 817 3079
Q 1281 3584 2069 3584
Q 2775 3584 3186 3129
Q 3597 2675 3597 1894
z
M 3022 2063
Q 3016 2534 2758 2815
Q 2500 3097 2075 3097
Q 1594 3097 1305 2825
Q 1016 2553 972 2059
L 3022 2063
z
" transform="scale(0.015625)"/>
      <path id="DejaVuSans-44" d="M 2194 1759
Q 1497 1759 1228 1600
Q 959 1441 959 1056
Q 959 750 1161 570
Q 1363 391 1709 391
Q 2188 391 2477 730
Q 2766 1069 2766 1631
L 2766 1759
L 2194 1759
z
M 3341 1997
L 3341 0
L 2766 0
L 2766 531
Q 2569 213 2275 61
Q 1981 -91 1556 -91
Q 1019 -91 701 211
Q 384 513 384 1019
Q 384 1609 779 1909
Q 1175 2209 1959 2209
L 2766 2209
L 2766 2266
Q 2766 2663 2505 2880
Q 2244 3097 1772 3097
Q 1472 3097 1187 3025
Q 903 2953 641 2809
L 641 3341
Q 956 3463 1253 3523
Q 1550 3584 1831 3584
Q 2591 3584 2966 3190
Q 3341 2797 3341 1997
z
" transform="scale(0.015625)"/>
      <path id="DejaVuSans-51" d="M 3513 2113
L 3513 0
L 2938 0
L 2938 2094
Q 2938 2591 2744 2837
Q 2550 3084 2163 3084
Q 1697 3084 1428 2787
Q 1159 2491 1159 1978
L 1159 0
L 581 0
L 581 3500
L 1159 3500
L 1159 2956
Q 1366 3272 1645 3428
Q 1925 3584 2291 3584
Q 2894 3584 3203 3211
Q 3513 2838 3513 2113
z
" transform="scale(0.015625)"/>
      <path id="DejaVuSans-3" transform="scale(0.015625)"/>
      <path id="DejaVuSans-53" d="M 1159 525
L 1159 -1331
L 581 -1331
L 581 3500
L 1159 3500
L 1159 2969
Q 1341 3281 1617 3432
Q 1894 3584 2278 3584
Q 2916 3584 3314 3078
Q 3713 2572 3713 1747
Q 3713 922 3314 415
Q 2916 -91 2278 -91
Q 1894 -91 1617 61
Q 1341 213 1159 525
z
M 3116 1747
Q 3116 2381 2855 2742
Q 2594 3103 2138 3103
Q 1681 3103 1420 2742
Q 1159 2381 1159 1747
Q 1159 1113 1420 752
Q 1681 391 2138 391
Q 2594 391 2855 752
Q 3116 1113 3116 1747
z
" transform="scale(0.015625)"/>
      <path id="DejaVuSans-55" d="M 2631 2963
Q 2534 3019 2420 3045
Q 2306 3072 2169 3072
Q 1681 3072 1420 2755
Q 1159 2438 1159 1844
L 1159 0
L 581 0
L 581 3500
L 1159 3500
L 1159 2956
Q 1341 3275 1631 3429
Q 1922 3584 2338 3584
Q 2397 3584 2469 3576
Q 2541 3569 2628 3553
L 2631 2963
z
" transform="scale(0.015625)"/>
      <path id="DejaVuSans-52" d="M 1959 3097
Q 1497 3097 1228 2736
Q 959 2375 959 1747
Q 959 1119 1226 758
Q 1494 397 1959 397
Q 2419 397 2687 759
Q 2956 1122 2956 1747
Q 2956 2369 2687 2733
Q 2419 3097 1959 3097
z
M 1959 3584
Q 2709 3584 3137 3096
Q 3566 2609 3566 1747
Q 3566 888 3137 398
Q 2709 -91 1959 -91
Q 1206 -91 779 398
Q 353 888 353 1747
Q 353 2609 779 3096
Q 1206 3584 1959 3584
z
" transform="scale(0.015625)"/>
      <path id="DejaVuSans-56" d="M 2834 3397
L 2834 2853
Q 2591 2978 2328 3040
Q 2066 3103 1784 3103
Q 1356 3103 1142 2972
Q 928 2841 928 2578
Q 928 2378 1081 2264
Q 1234 2150 1697 2047
L 1894 2003
Q 2506 1872 2764 1633
Q 3022 1394 3022 966
Q 3022 478 2636 193
Q 2250 -91 1575 -91
Q 1294 -91 989 -36
Q 684 19 347 128
L 347 722
Q 666 556 975 473
Q 1284 391 1588 391
Q 1994 391 2212 530
Q 2431 669 2431 922
Q 2431 1156 2273 1281
Q 2116 1406 1581 1522
L 1381 1569
Q 847 1681 609 1914
Q 372 2147 372 2553
Q 372 3047 722 3315
Q 1072 3584 1716 3584
Q 2034 3584 2315 3537
Q 2597 3491 2834 3397
z
" transform="scale(0.015625)"/>
     </defs>
     <use xlink:href="#DejaVuSans-32"/>
     <use xlink:href="#DejaVuSans-46" transform="translate(78.71875 0)"/>
     <use xlink:href="#DejaVuSans-48" transform="translate(133.703125 0)"/>
     <use xlink:href="#DejaVuSans-44" transform="translate(195.234375 0)"/>
     <use xlink:href="#DejaVuSans-51" transform="translate(256.515625 0)"/>
     <use xlink:href="#DejaVuSans-3" transform="translate(319.890625 0)"/>
     <use xlink:href="#DejaVuSans-53" transform="translate(351.671875 0)"/>
     <use xlink:href="#DejaVuSans-55" transform="translate(415.15625 0)"/>
     <use xlink:href="#DejaVuSans-52" transform="translate(454.0625 0)"/>
     <use xlink:href="#DejaVuSans-46" transform="translate(515.25 0)"/>
     <use xlink:href="#DejaVuSans-48" transform="translate(570.234375 0)"/>
     <use xlink:href="#DejaVuSans-56" transform="translate(631.765625 0)"/>
     <use xlink:href="#DejaVuSans-56" transform="translate(683.859375 0)"/>
     <use xlink:href="#DejaVuSans-48" transform="translate(735.953125 0)"/>
     <use xlink:href="#DejaVuSans-56" transform="translate(797.484375 0)"/>
    </g>
    <!-- Tide | surge | eddy -->
    <g transform="translate(47.754271 189.537891) scale(0.09 -0.09)">
     <defs>
      <path id="DejaVuSans-37" d="M -19 4666
L 3928 4666
L 3928 4134
L 2272 4134
L 2272 0
L 1638 0
L 1638 4134
L -19 4134
L -19 4666
z
" transform="scale(0.015625)"/>
      <path id="DejaVuSans-4c" d="M 603 3500
L 1178 3500
L 1178 0
L 603 0
L 603 3500
z
M 603 4863
L 1178 4863
L 1178 4134
L 603 4134
L 603 4863
z
" transform="scale(0.015625)"/>
      <path id="DejaVuSans-47" d="M 2906 2969
L 2906 4863
L 3481 4863
L 3481 0
L 2906 0
L 2906 525
Q 2725 213 2448 61
Q 2172 -91 1784 -91
Q 1150 -91 751 415
Q 353 922 353 1747
Q 353 2572 751 3078
Q 1150 3584 1784 3584
Q 2172 3584 2448 3432
Q 2725 3281 2906 2969
z
M 947 1747
Q 947 1113 1208 752
Q 1469 391 1925 391
Q 2381 391 2643 752
Q 2906 1113 2906 1747
Q 2906 2381 2643 2742
Q 2381 3103 1925 3103
Q 1469 3103 1208 2742
Q 947 2381 947 1747
z
" transform="scale(0.015625)"/>
      <path id="DejaVuSans-5f" d="M 1344 4891
L 1344 -1509
L 813 -1509
L 813 4891
L 1344 4891
z
" transform="scale(0.015625)"/>
      <path id="DejaVuSans-58" d="M 544 1381
L 544 3500
L 1119 3500
L 1119 1403
Q 1119 906 1312 657
Q 1506 409 1894 409
Q 2359 409 2629 706
Q 2900 1003 2900 1516
L 2900 3500
L 3475 3500
L 3475 0
L 2900 0
L 2900 538
Q 2691 219 2414 64
Q 2138 -91 1772 -91
Q 1169 -91 856 284
Q 544 659 544 1381
z
M 1991 3584
L 1991 3584
z
" transform="scale(0.015625)"/>
      <path id="DejaVuSans-4a" d="M 2906 1791
Q 2906 2416 2648 2759
Q 2391 3103 1925 3103
Q 1463 3103 1205 2759
Q 947 2416 947 1791
Q 947 1169 1205 825
Q 1463 481 1925 481
Q 2391 481 2648 825
Q 2906 1169 2906 1791
z
M 3481 434
Q 3481 -459 3084 -895
Q 2688 -1331 1869 -1331
Q 1566 -1331 1297 -1286
Q 1028 -1241 775 -1147
L 775 -588
Q 1028 -725 1275 -790
Q 1522 -856 1778 -856
Q 2344 -856 2625 -561
Q 2906 -266 2906 331
L 2906 616
Q 2728 306 2450 153
Q 2172 0 1784 0
Q 1141 0 747 490
Q 353 981 353 1791
Q 353 2603 747 3093
Q 1141 3584 1784 3584
Q 2172 3584 2450 3431
Q 2728 3278 2906 2969
L 2906 3500
L 3481 3500
L 3481 434
z
" transform="scale(0.015625)"/>
      <path id="DejaVuSans-5c" d="M 2059 -325
Q 1816 -950 1584 -1140
Q 1353 -1331 966 -1331
L 506 -1331
L 506 -850
L 844 -850
Q 1081 -850 1212 -737
Q 1344 -625 1503 -206
L 1606 56
L 191 3500
L 800 3500
L 1894 763
L 2988 3500
L 3597 3500
L 2059 -325
z
" transform="scale(0.015625)"/>
     </defs>
     <use xlink:href="#DejaVuSans-37"/>
     <use xlink:href="#DejaVuSans-4c" transform="translate(58 0)"/>
     <use xlink:href="#DejaVuSans-47" transform="translate(85.78125 0)"/>
     <use xlink:href="#DejaVuSans-48" transform="translate(149.265625 0)"/>
     <use xlink:href="#DejaVuSans-3" transform="translate(210.796875 0)"/>
     <use xlink:href="#DejaVuSans-5f" transform="translate(242.578125 0)"/>
     <use xlink:href="#DejaVuSans-3" transform="translate(276.265625 0)"/>
     <use xlink:href="#DejaVuSans-56" transform="translate(308.046875 0)"/>
     <use xlink:href="#DejaVuSans-58" transform="translate(360.140625 0)"/>
     <use xlink:href="#DejaVuSans-55" transform="translate(423.515625 0)"/>
     <use xlink:href="#DejaVuSans-4a" transform="translate(462.875 0)"/>
     <use xlink:href="#DejaVuSans-48" transform="translate(526.359375 0)"/>
     <use xlink:href="#DejaVuSans-3" transform="translate(587.890625 0)"/>
     <use xlink:href="#DejaVuSans-5f" transform="translate(619.671875 0)"/>
     <use xlink:href="#DejaVuSans-3" transform="translate(653.359375 0)"/>
     <use xlink:href="#DejaVuSans-48" transform="translate(685.140625 0)"/>
     <use xlink:href="#DejaVuSans-47" transform="translate(746.671875 0)"/>
     <use xlink:href="#DejaVuSans-47" transform="translate(810.15625 0)"/>
     <use xlink:href="#DejaVuSans-5c" transform="translate(873.640625 0)"/>
    </g>
    <!-- Internal wave | tsunami | slide -->
    <g transform="translate(21.662005 200.379727) scale(0.09 -0.09)">
     <defs>
      <path id="DejaVuSans-2c" d="M 628 4666
L 1259 4666
L 1259 0
L 628 0
L 628 4666
z
" transform="scale(0.015625)"/>
      <path id="DejaVuSans-57" d="M 1172 4494
L 1172 3500
L 2356 3500
L 2356 3053
L 1172 3053
L 1172 1153
Q 1172 725 1289 603
Q 1406 481 1766 481
L 2356 481
L 2356 0
L 1766 0
Q 1100 0 847 248
Q 594 497 594 1153
L 594 3053
L 172 3053
L 172 3500
L 594 3500
L 594 4494
L 1172 4494
z
" transform="scale(0.015625)"/>
      <path id="DejaVuSans-4f" d="M 603 4863
L 1178 4863
L 1178 0
L 603 0
L 603 4863
z
" transform="scale(0.015625)"/>
      <path id="DejaVuSans-5a" d="M 269 3500
L 844 3500
L 1563 769
L 2278 3500
L 2956 3500
L 3675 769
L 4391 3500
L 4966 3500
L 4050 0
L 3372 0
L 2619 2869
L 1863 0
L 1184 0
L 269 3500
z
" transform="scale(0.015625)"/>
      <path id="DejaVuSans-59" d="M 191 3500
L 800 3500
L 1894 563
L 2988 3500
L 3597 3500
L 2284 0
L 1503 0
L 191 3500
z
" transform="scale(0.015625)"/>
      <path id="DejaVuSans-50" d="M 3328 2828
Q 3544 3216 3844 3400
Q 4144 3584 4550 3584
Q 5097 3584 5394 3201
Q 5691 2819 5691 2113
L 5691 0
L 5113 0
L 5113 2094
Q 5113 2597 4934 2840
Q 4756 3084 4391 3084
Q 3944 3084 3684 2787
Q 3425 2491 3425 1978
L 3425 0
L 2847 0
L 2847 2094
Q 2847 2600 2669 2842
Q 2491 3084 2119 3084
Q 1678 3084 1418 2786
Q 1159 2488 1159 1978
L 1159 0
L 581 0
L 581 3500
L 1159 3500
L 1159 2956
Q 1356 3278 1631 3431
Q 1906 3584 2284 3584
Q 2666 3584 2933 3390
Q 3200 3197 3328 2828
z
" transform="scale(0.015625)"/>
     </defs>
     <use xlink:href="#DejaVuSans-2c"/>
     <use xlink:href="#DejaVuSans-51" transform="translate(29.5 0)"/>
     <use xlink:href="#DejaVuSans-57" transform="translate(92.875 0)"/>
     <use xlink:href="#DejaVuSans-48" transform="translate(132.078125 0)"/>
     <use xlink:href="#DejaVuSans-55" transform="translate(193.609375 0)"/>
     <use xlink:href="#DejaVuSans-51" transform="translate(232.96875 0)"/>
     <use xlink:href="#DejaVuSans-44" transform="translate(296.34375 0)"/>
     <use xlink:href="#DejaVuSans-4f" transform="translate(357.625 0)"/>
     <use xlink:href="#DejaVuSans-3" transform="translate(385.40625 0)"/>
     <use xlink:href="#DejaVuSans-5a" transform="translate(417.1875 0)"/>
     <use xlink:href="#DejaVuSans-44" transform="translate(498.96875 0)"/>
     <use xlink:href="#DejaVuSans-59" transform="translate(560.25 0)"/>
     <use xlink:href="#DejaVuSans-48" transform="translate(619.4375 0)"/>
     <use xlink:href="#DejaVuSans-3" transform="translate(680.96875 0)"/>
     <use xlink:href="#DejaVuSans-5f" transform="translate(712.75 0)"/>
     <use xlink:href="#DejaVuSans-3" transform="translate(746.4375 0)"/>
     <use xlink:href="#DejaVuSans-57" transform="translate(778.21875 0)"/>
     <use xlink:href="#DejaVuSans-56" transform="translate(817.421875 0)"/>
     <use xlink:href="#DejaVuSans-58" transform="translate(869.515625 0)"/>
     <use xlink:href="#DejaVuSans-51" transform="translate(932.890625 0)"/>
     <use xlink:href="#DejaVuSans-44" transform="translate(996.265625 0)"/>
     <use xlink:href="#DejaVuSans-50" transform="translate(1057.546875 0)"/>
     <use xlink:href="#DejaVuSans-4c" transform="translate(1154.953125 0)"/>
     <use xlink:href="#DejaVuSans-3" transform="translate(1182.734375 0)"/>
     <use xlink:href="#DejaVuSans-5f" transform="translate(1214.515625 0)"/>
     <use xlink:href="#DejaVuSans-3" transform="translate(1248.203125 0)"/>
     <use xlink:href="#DejaVuSans-56" transform="translate(1279.984375 0)"/>
     <use xlink:href="#DejaVuSans-4f" transform="translate(1332.078125 0)"/>
     <use xlink:href="#DejaVuSans-4c" transform="translate(1359.859375 0)"/>
     <use xlink:href="#DejaVuSans-47" transform="translate(1387.640625 0)"/>
     <use xlink:href="#DejaVuSans-48" transform="translate(1451.125 0)"/>
    </g>
   </g>
   <g id="text_2">
    <!-- Mass anomaly -->
    <g transform="translate(234.353543 183.911309) scale(0.09 -0.09)">
     <defs>
      <path id="DejaVuSans-30" d="M 628 4666
L 1569 4666
L 2759 1491
L 3956 4666
L 4897 4666
L 4897 0
L 4281 0
L 4281 4097
L 3078 897
L 2444 897
L 1241 4097
L 1241 0
L 628 0
L 628 4666
z
" transform="scale(0.015625)"/>
     </defs>
     <use xlink:href="#DejaVuSans-30"/>
     <use xlink:href="#DejaVuSans-44" transform="translate(86.28125 0)"/>
     <use xlink:href="#DejaVuSans-56" transform="translate(147.5625 0)"/>
     <use xlink:href="#DejaVuSans-56" transform="translate(199.65625 0)"/>
     <use xlink:href="#DejaVuSans-3" transform="translate(251.75 0)"/>
     <use xlink:href="#DejaVuSans-44" transform="translate(283.53125 0)"/>
     <use xlink:href="#DejaVuSans-51" transform="translate(344.8125 0)"/>
     <use xlink:href="#DejaVuSans-52" transform="translate(408.1875 0)"/>
     <use xlink:href="#DejaVuSans-50" transform="translate(469.375 0)"/>
     <use xlink:href="#DejaVuSans-44" transform="translate(566.78125 0)"/>
     <use xlink:href="#DejaVuSans-4f" transform="translate(628.0625 0)"/>
     <use xlink:href="#DejaVuSans-5c" transform="translate(655.84375 0)"/>
    </g>
    <!-- $\Delta\sigma(x,t)$ or $\rho'(x,z,t)$ -->
    <g transform="translate(223.914949 195.165176) scale(0.09 -0.09)">
     <defs>
      <path id="DejaVuSans-329" d="M 2188 4044
L 906 525
L 3472 525
L 2188 4044
z
M 50 0
L 1831 4666
L 2547 4666
L 4325 0
L 50 0
z
" transform="scale(0.015625)"/>
      <path id="DejaVuSans-Oblique-357" d="M 2219 3044
Q 1744 3044 1422 2700
Q 1081 2341 969 1747
Q 844 1119 1044 756
Q 1241 397 1706 397
Q 2166 397 2503 759
Q 2844 1122 2966 1747
Q 3075 2319 2881 2700
Q 2700 3044 2219 3044
z
M 2309 3503
L 4219 3500
L 4106 2925
L 3463 2925
Q 3706 2438 3575 1747
Q 3406 888 2884 400
Q 2359 -91 1609 -91
Q 856 -91 525 400
Q 194 888 363 1747
Q 528 2609 1050 3097
Q 1484 3503 2309 3503
z
" transform="scale(0.015625)"/>
      <path id="DejaVuSans-b" d="M 1984 4856
Q 1566 4138 1362 3434
Q 1159 2731 1159 2009
Q 1159 1288 1364 580
Q 1569 -128 1984 -844
L 1484 -844
Q 1016 -109 783 600
Q 550 1309 550 2009
Q 550 2706 781 3412
Q 1013 4119 1484 4856
L 1984 4856
z
" transform="scale(0.015625)"/>
      <path id="DejaVuSans-Oblique-5b" d="M 3841 3500
L 2234 1784
L 3219 0
L 2559 0
L 1819 1388
L 531 0
L -166 0
L 1556 1844
L 641 3500
L 1300 3500
L 1972 2234
L 3144 3500
L 3841 3500
z
" transform="scale(0.015625)"/>
      <path id="DejaVuSans-f" d="M 750 794
L 1409 794
L 1409 256
L 897 -744
L 494 -744
L 750 256
L 750 794
z
" transform="scale(0.015625)"/>
      <path id="DejaVuSans-Oblique-57" d="M 2706 3500
L 2619 3053
L 1472 3053
L 1100 1153
Q 1081 1047 1072 975
Q 1063 903 1063 863
Q 1063 663 1183 572
Q 1303 481 1569 481
L 2150 481
L 2053 0
L 1503 0
Q 991 0 739 200
Q 488 400 488 806
Q 488 878 497 964
Q 506 1050 525 1153
L 897 3053
L 409 3053
L 500 3500
L 978 3500
L 1172 4494
L 1747 4494
L 1556 3500
L 2706 3500
z
" transform="scale(0.015625)"/>
      <path id="DejaVuSans-c" d="M 513 4856
L 1013 4856
Q 1481 4119 1714 3412
Q 1947 2706 1947 2009
Q 1947 1309 1714 600
Q 1481 -109 1013 -844
L 513 -844
Q 928 -128 1133 580
Q 1338 1288 1338 2009
Q 1338 2731 1133 3434
Q 928 4138 513 4856
z
" transform="scale(0.015625)"/>
      <path id="DejaVuSans-Oblique-355" d="M 1203 2875
Q 1453 3194 1981 3475
Q 2188 3584 2756 3584
Q 3394 3584 3694 3078
Q 3994 2572 3834 1747
Q 3672 922 3175 415
Q 2678 -91 2041 -91
Q 1656 -91 1409 63
Q 1163 213 1044 525
L 681 -1331
L 103 -1331
L 697 1716
Q 838 2438 1203 2875
z
M 3238 1747
Q 3359 2381 3169 2744
Q 2978 3103 2522 3103
Q 2066 3103 1734 2744
Q 1403 2381 1281 1747
Q 1156 1113 1347 750
Q 1538 391 1994 391
Q 2450 391 2781 750
Q 3113 1113 3238 1747
z
" transform="scale(0.015625)"/>
      <path id="Cmsy10-49" d="M 225 347
Q 184 359 184 409
L 966 3316
Q 1003 3434 1093 3506
Q 1184 3578 1300 3578
Q 1450 3578 1564 3479
Q 1678 3381 1678 3231
Q 1678 3166 1644 3084
L 488 319
Q 466 275 428 275
Q 394 275 320 306
Q 247 338 225 347
z
" transform="scale(0.015625)"/>
      <path id="DejaVuSans-Oblique-5d" d="M 744 3500
L 3475 3500
L 3372 2975
L 738 459
L 2913 459
L 2822 0
L -19 0
L 84 525
L 2719 3041
L 653 3041
L 744 3500
z
" transform="scale(0.015625)"/>
     </defs>
     <use xlink:href="#DejaVuSans-329" transform="translate(0 0.565625)"/>
     <use xlink:href="#DejaVuSans-Oblique-357" transform="translate(68.408203 0.565625)"/>
     <use xlink:href="#DejaVuSans-b" transform="translate(131.787109 0.565625)"/>
     <use xlink:href="#DejaVuSans-Oblique-5b" transform="translate(170.800781 0.565625)"/>
     <use xlink:href="#DejaVuSans-f" transform="translate(229.980469 0.565625)"/>
     <use xlink:href="#DejaVuSans-Oblique-57" transform="translate(281.25 0.565625)"/>
     <use xlink:href="#DejaVuSans-c" transform="translate(320.458984 0.565625)"/>
     <use xlink:href="#DejaVuSans-3" transform="translate(359.472656 0.565625)"/>
     <use xlink:href="#DejaVuSans-52" transform="translate(391.259766 0.565625)"/>
     <use xlink:href="#DejaVuSans-55" transform="translate(452.441406 0.565625)"/>
     <use xlink:href="#DejaVuSans-3" transform="translate(493.554688 0.565625)"/>
     <use xlink:href="#DejaVuSans-Oblique-355" transform="translate(525.341797 0.565625)"/>
     <use xlink:href="#Cmsy10-49" transform="translate(593.468255 41.865625) scale(0.7)"/>
     <use xlink:href="#DejaVuSans-b" transform="translate(615.445794 0.565625)"/>
     <use xlink:href="#DejaVuSans-Oblique-5b" transform="translate(654.459466 0.565625)"/>
     <use xlink:href="#DejaVuSans-f" transform="translate(713.639154 0.565625)"/>
     <use xlink:href="#DejaVuSans-Oblique-5d" transform="translate(764.908685 0.565625)"/>
     <use xlink:href="#DejaVuSans-f" transform="translate(817.398919 0.565625)"/>
     <use xlink:href="#DejaVuSans-Oblique-57" transform="translate(868.668451 0.565625)"/>
     <use xlink:href="#DejaVuSans-c" transform="translate(907.877435 0.565625)"/>
    </g>
   </g>
   <g id="text_3">
    <!-- Newtonian kernel -->
    <g transform="translate(412.336503 76.687152) scale(0.09 -0.09)">
     <defs>
      <path id="DejaVuSans-31" d="M 628 4666
L 1478 4666
L 3547 763
L 3547 4666
L 4159 4666
L 4159 0
L 3309 0
L 1241 3903
L 1241 0
L 628 0
L 628 4666
z
" transform="scale(0.015625)"/>
      <path id="DejaVuSans-4e" d="M 581 4863
L 1159 4863
L 1159 1991
L 2875 3500
L 3609 3500
L 1753 1863
L 3688 0
L 2938 0
L 1159 1709
L 1159 0
L 581 0
L 581 4863
z
" transform="scale(0.015625)"/>
     </defs>
     <use xlink:href="#DejaVuSans-31"/>
     <use xlink:href="#DejaVuSans-48" transform="translate(74.8125 0)"/>
     <use xlink:href="#DejaVuSans-5a" transform="translate(136.34375 0)"/>
     <use xlink:href="#DejaVuSans-57" transform="translate(218.125 0)"/>
     <use xlink:href="#DejaVuSans-52" transform="translate(257.328125 0)"/>
     <use xlink:href="#DejaVuSans-51" transform="translate(318.515625 0)"/>
     <use xlink:href="#DejaVuSans-4c" transform="translate(381.890625 0)"/>
     <use xlink:href="#DejaVuSans-44" transform="translate(409.671875 0)"/>
     <use xlink:href="#DejaVuSans-51" transform="translate(470.953125 0)"/>
     <use xlink:href="#DejaVuSans-3" transform="translate(534.328125 0)"/>
     <use xlink:href="#DejaVuSans-4e" transform="translate(566.109375 0)"/>
     <use xlink:href="#DejaVuSans-48" transform="translate(620.453125 0)"/>
     <use xlink:href="#DejaVuSans-55" transform="translate(681.984375 0)"/>
     <use xlink:href="#DejaVuSans-51" transform="translate(721.34375 0)"/>
     <use xlink:href="#DejaVuSans-48" transform="translate(784.71875 0)"/>
     <use xlink:href="#DejaVuSans-4f" transform="translate(846.25 0)"/>
    </g>
    <!-- direct attraction -->
    <g transform="translate(415.385253 87.489613) scale(0.09 -0.09)">
     <use xlink:href="#DejaVuSans-47"/>
     <use xlink:href="#DejaVuSans-4c" transform="translate(63.484375 0)"/>
     <use xlink:href="#DejaVuSans-55" transform="translate(91.265625 0)"/>
     <use xlink:href="#DejaVuSans-48" transform="translate(130.171875 0)"/>
     <use xlink:href="#DejaVuSans-46" transform="translate(191.703125 0)"/>
     <use xlink:href="#DejaVuSans-57" transform="translate(246.6875 0)"/>
     <use xlink:href="#DejaVuSans-3" transform="translate(285.890625 0)"/>
     <use xlink:href="#DejaVuSans-44" transform="translate(317.671875 0)"/>
     <use xlink:href="#DejaVuSans-57" transform="translate(378.953125 0)"/>
     <use xlink:href="#DejaVuSans-57" transform="translate(418.15625 0)"/>
     <use xlink:href="#DejaVuSans-55" transform="translate(457.359375 0)"/>
     <use xlink:href="#DejaVuSans-44" transform="translate(498.46875 0)"/>
     <use xlink:href="#DejaVuSans-46" transform="translate(559.75 0)"/>
     <use xlink:href="#DejaVuSans-57" transform="translate(614.734375 0)"/>
     <use xlink:href="#DejaVuSans-4c" transform="translate(653.9375 0)"/>
     <use xlink:href="#DejaVuSans-52" transform="translate(681.71875 0)"/>
     <use xlink:href="#DejaVuSans-51" transform="translate(742.90625 0)"/>
    </g>
   </g>
   <g id="text_4">
    <!-- Direct radial gravity -->
    <g transform="translate(610.291391 76.687152) scale(0.09 -0.09)">
     <defs>
      <path id="DejaVuSans-27" d="M 1259 4147
L 1259 519
L 2022 519
Q 2988 519 3436 956
Q 3884 1394 3884 2338
Q 3884 3275 3436 3711
Q 2988 4147 2022 4147
L 1259 4147
z
M 628 4666
L 1925 4666
Q 3281 4666 3915 4102
Q 4550 3538 4550 2338
Q 4550 1131 3912 565
Q 3275 0 1925 0
L 628 0
L 628 4666
z
" transform="scale(0.015625)"/>
     </defs>
     <use xlink:href="#DejaVuSans-27"/>
     <use xlink:href="#DejaVuSans-4c" transform="translate(77 0)"/>
     <use xlink:href="#DejaVuSans-55" transform="translate(104.78125 0)"/>
     <use xlink:href="#DejaVuSans-48" transform="translate(143.6875 0)"/>
     <use xlink:href="#DejaVuSans-46" transform="translate(205.21875 0)"/>
     <use xlink:href="#DejaVuSans-57" transform="translate(260.203125 0)"/>
     <use xlink:href="#DejaVuSans-3" transform="translate(299.40625 0)"/>
     <use xlink:href="#DejaVuSans-55" transform="translate(331.1875 0)"/>
     <use xlink:href="#DejaVuSans-44" transform="translate(372.296875 0)"/>
     <use xlink:href="#DejaVuSans-47" transform="translate(433.578125 0)"/>
     <use xlink:href="#DejaVuSans-4c" transform="translate(497.0625 0)"/>
     <use xlink:href="#DejaVuSans-44" transform="translate(524.84375 0)"/>
     <use xlink:href="#DejaVuSans-4f" transform="translate(586.125 0)"/>
     <use xlink:href="#DejaVuSans-3" transform="translate(613.90625 0)"/>
     <use xlink:href="#DejaVuSans-4a" transform="translate(645.6875 0)"/>
     <use xlink:href="#DejaVuSans-55" transform="translate(709.171875 0)"/>
     <use xlink:href="#DejaVuSans-44" transform="translate(750.28125 0)"/>
     <use xlink:href="#DejaVuSans-59" transform="translate(811.5625 0)"/>
     <use xlink:href="#DejaVuSans-4c" transform="translate(870.75 0)"/>
     <use xlink:href="#DejaVuSans-57" transform="translate(898.53125 0)"/>
     <use xlink:href="#DejaVuSans-5c" transform="translate(937.734375 0)"/>
    </g>
    <!-- gdirect  [m s⁻²] -->
    <g transform="translate(620.72225 87.489613) scale(0.09 -0.09)">
     <defs>
      <path id="DejaVuSans-3e" d="M 550 4863
L 1875 4863
L 1875 4416
L 1125 4416
L 1125 -397
L 1875 -397
L 1875 -844
L 550 -844
L 550 4863
z
" transform="scale(0.015625)"/>
      <path id="DejaVuSans-b56" d="M 428 3359
L 2950 3359
L 2950 3063
L 428 3063
L 428 3359
z
" transform="scale(0.015625)"/>
      <path id="DejaVuSans-74" d="M 838 2444
L 2163 2444
L 2163 2088
L 294 2088
L 294 2431
Q 400 2528 597 2703
Q 1672 3656 1672 3950
Q 1672 4156 1509 4282
Q 1347 4409 1081 4409
Q 919 4409 728 4354
Q 538 4300 313 4191
L 313 4575
Q 553 4663 761 4706
Q 969 4750 1147 4750
Q 1600 4750 1872 4544
Q 2144 4338 2144 4000
Q 2144 3566 1109 2678
Q 934 2528 838 2444
z
" transform="scale(0.015625)"/>
      <path id="DejaVuSans-40" d="M 1947 4863
L 1947 -844
L 622 -844
L 622 -397
L 1369 -397
L 1369 4416
L 622 4416
L 622 4863
L 1947 4863
z
" transform="scale(0.015625)"/>
     </defs>
     <use xlink:href="#DejaVuSans-4a"/>
     <use xlink:href="#DejaVuSans-47" transform="translate(63.484375 0)"/>
     <use xlink:href="#DejaVuSans-4c" transform="translate(126.96875 0)"/>
     <use xlink:href="#DejaVuSans-55" transform="translate(154.75 0)"/>
     <use xlink:href="#DejaVuSans-48" transform="translate(193.65625 0)"/>
     <use xlink:href="#DejaVuSans-46" transform="translate(255.1875 0)"/>
     <use xlink:href="#DejaVuSans-57" transform="translate(310.171875 0)"/>
     <use xlink:href="#DejaVuSans-3" transform="translate(349.375 0)"/>
     <use xlink:href="#DejaVuSans-3" transform="translate(381.15625 0)"/>
     <use xlink:href="#DejaVuSans-3e" transform="translate(412.9375 0)"/>
     <use xlink:href="#DejaVuSans-50" transform="translate(451.953125 0)"/>
     <use xlink:href="#DejaVuSans-3" transform="translate(549.359375 0)"/>
     <use xlink:href="#DejaVuSans-56" transform="translate(581.140625 0)"/>
     <use xlink:href="#DejaVuSans-b56" transform="translate(633.234375 0)"/>
     <use xlink:href="#DejaVuSans-74" transform="translate(686.015625 0)"/>
     <use xlink:href="#DejaVuSans-40" transform="translate(726.109375 0)"/>
    </g>
   </g>
   <g id="text_5">
    <!-- Elastic Earth response -->
    <g transform="translate(401.617363 187.207008) scale(0.09 -0.09)">
     <defs>
      <path id="DejaVuSans-28" d="M 628 4666
L 3578 4666
L 3578 4134
L 1259 4134
L 1259 2753
L 3481 2753
L 3481 2222
L 1259 2222
L 1259 531
L 3634 531
L 3634 0
L 628 0
L 628 4666
z
" transform="scale(0.015625)"/>
      <path id="DejaVuSans-4b" d="M 3513 2113
L 3513 0
L 2938 0
L 2938 2094
Q 2938 2591 2744 2837
Q 2550 3084 2163 3084
Q 1697 3084 1428 2787
Q 1159 2491 1159 1978
L 1159 0
L 581 0
L 581 4863
L 1159 4863
L 1159 2956
Q 1366 3272 1645 3428
Q 1925 3584 2291 3584
Q 2894 3584 3203 3211
Q 3513 2838 3513 2113
z
" transform="scale(0.015625)"/>
     </defs>
     <use xlink:href="#DejaVuSans-28"/>
     <use xlink:href="#DejaVuSans-4f" transform="translate(63.1875 0)"/>
     <use xlink:href="#DejaVuSans-44" transform="translate(90.96875 0)"/>
     <use xlink:href="#DejaVuSans-56" transform="translate(152.25 0)"/>
     <use xlink:href="#DejaVuSans-57" transform="translate(204.34375 0)"/>
     <use xlink:href="#DejaVuSans-4c" transform="translate(243.546875 0)"/>
     <use xlink:href="#DejaVuSans-46" transform="translate(271.328125 0)"/>
     <use xlink:href="#DejaVuSans-3" transform="translate(326.3125 0)"/>
     <use xlink:href="#DejaVuSans-28" transform="translate(358.09375 0)"/>
     <use xlink:href="#DejaVuSans-44" transform="translate(421.28125 0)"/>
     <use xlink:href="#DejaVuSans-55" transform="translate(482.5625 0)"/>
     <use xlink:href="#DejaVuSans-57" transform="translate(523.671875 0)"/>
     <use xlink:href="#DejaVuSans-4b" transform="translate(562.875 0)"/>
     <use xlink:href="#DejaVuSans-3" transform="translate(626.25 0)"/>
     <use xlink:href="#DejaVuSans-55" transform="translate(658.03125 0)"/>
     <use xlink:href="#DejaVuSans-48" transform="translate(696.9375 0)"/>
     <use xlink:href="#DejaVuSans-56" transform="translate(758.46875 0)"/>
     <use xlink:href="#DejaVuSans-53" transform="translate(810.5625 0)"/>
     <use xlink:href="#DejaVuSans-52" transform="translate(874.046875 0)"/>
     <use xlink:href="#DejaVuSans-51" transform="translate(935.234375 0)"/>
     <use xlink:href="#DejaVuSans-56" transform="translate(998.609375 0)"/>
     <use xlink:href="#DejaVuSans-48" transform="translate(1050.703125 0)"/>
    </g>
    <!-- Love numbers / Green functions -->
    <g transform="translate(379.556816 198.009469) scale(0.09 -0.09)">
     <defs>
      <path id="DejaVuSans-2f" d="M 628 4666
L 1259 4666
L 1259 531
L 3531 531
L 3531 0
L 628 0
L 628 4666
z
" transform="scale(0.015625)"/>
      <path id="DejaVuSans-45" d="M 3116 1747
Q 3116 2381 2855 2742
Q 2594 3103 2138 3103
Q 1681 3103 1420 2742
Q 1159 2381 1159 1747
Q 1159 1113 1420 752
Q 1681 391 2138 391
Q 2594 391 2855 752
Q 3116 1113 3116 1747
z
M 1159 2969
Q 1341 3281 1617 3432
Q 1894 3584 2278 3584
Q 2916 3584 3314 3078
Q 3713 2572 3713 1747
Q 3713 922 3314 415
Q 2916 -91 2278 -91
Q 1894 -91 1617 61
Q 1341 213 1159 525
L 1159 0
L 581 0
L 581 4863
L 1159 4863
L 1159 2969
z
" transform="scale(0.015625)"/>
      <path id="DejaVuSans-12" d="M 1625 4666
L 2156 4666
L 531 -594
L 0 -594
L 1625 4666
z
" transform="scale(0.015625)"/>
      <path id="DejaVuSans-2a" d="M 3809 666
L 3809 1919
L 2778 1919
L 2778 2438
L 4434 2438
L 4434 434
Q 4069 175 3628 42
Q 3188 -91 2688 -91
Q 1594 -91 976 548
Q 359 1188 359 2328
Q 359 3472 976 4111
Q 1594 4750 2688 4750
Q 3144 4750 3555 4637
Q 3966 4525 4313 4306
L 4313 3634
Q 3963 3931 3569 4081
Q 3175 4231 2741 4231
Q 1884 4231 1454 3753
Q 1025 3275 1025 2328
Q 1025 1384 1454 906
Q 1884 428 2741 428
Q 3075 428 3337 486
Q 3600 544 3809 666
z
" transform="scale(0.015625)"/>
      <path id="DejaVuSans-49" d="M 2375 4863
L 2375 4384
L 1825 4384
Q 1516 4384 1395 4259
Q 1275 4134 1275 3809
L 1275 3500
L 2222 3500
L 2222 3053
L 1275 3053
L 1275 0
L 697 0
L 697 3053
L 147 3053
L 147 3500
L 697 3500
L 697 3744
Q 697 4328 969 4595
Q 1241 4863 1831 4863
L 2375 4863
z
" transform="scale(0.015625)"/>
     </defs>
     <use xlink:href="#DejaVuSans-2f"/>
     <use xlink:href="#DejaVuSans-52" transform="translate(53.96875 0)"/>
     <use xlink:href="#DejaVuSans-59" transform="translate(115.15625 0)"/>
     <use xlink:href="#DejaVuSans-48" transform="translate(174.34375 0)"/>
     <use xlink:href="#DejaVuSans-3" transform="translate(235.875 0)"/>
     <use xlink:href="#DejaVuSans-51" transform="translate(267.65625 0)"/>
     <use xlink:href="#DejaVuSans-58" transform="translate(331.03125 0)"/>
     <use xlink:href="#DejaVuSans-50" transform="translate(394.40625 0)"/>
     <use xlink:href="#DejaVuSans-45" transform="translate(491.8125 0)"/>
     <use xlink:href="#DejaVuSans-48" transform="translate(555.296875 0)"/>
     <use xlink:href="#DejaVuSans-55" transform="translate(616.828125 0)"/>
     <use xlink:href="#DejaVuSans-56" transform="translate(657.9375 0)"/>
     <use xlink:href="#DejaVuSans-3" transform="translate(710.03125 0)"/>
     <use xlink:href="#DejaVuSans-12" transform="translate(741.8125 0)"/>
     <use xlink:href="#DejaVuSans-3" transform="translate(775.5 0)"/>
     <use xlink:href="#DejaVuSans-2a" transform="translate(807.28125 0)"/>
     <use xlink:href="#DejaVuSans-55" transform="translate(884.765625 0)"/>
     <use xlink:href="#DejaVuSans-48" transform="translate(923.671875 0)"/>
     <use xlink:href="#DejaVuSans-48" transform="translate(985.203125 0)"/>
     <use xlink:href="#DejaVuSans-51" transform="translate(1046.734375 0)"/>
     <use xlink:href="#DejaVuSans-3" transform="translate(1110.109375 0)"/>
     <use xlink:href="#DejaVuSans-49" transform="translate(1141.890625 0)"/>
     <use xlink:href="#DejaVuSans-58" transform="translate(1177.09375 0)"/>
     <use xlink:href="#DejaVuSans-51" transform="translate(1240.46875 0)"/>
     <use xlink:href="#DejaVuSans-46" transform="translate(1303.84375 0)"/>
     <use xlink:href="#DejaVuSans-57" transform="translate(1358.828125 0)"/>
     <use xlink:href="#DejaVuSans-4c" transform="translate(1398.03125 0)"/>
     <use xlink:href="#DejaVuSans-52" transform="translate(1425.8125 0)"/>
     <use xlink:href="#DejaVuSans-51" transform="translate(1487 0)"/>
     <use xlink:href="#DejaVuSans-56" transform="translate(1550.375 0)"/>
    </g>
   </g>
   <g id="text_6">
    <!-- Combined elastic gravity -->
    <g transform="translate(602.132797 187.377174) scale(0.085 -0.085)">
     <defs>
      <path id="DejaVuSans-26" d="M 4122 4306
L 4122 3641
Q 3803 3938 3442 4084
Q 3081 4231 2675 4231
Q 1875 4231 1450 3742
Q 1025 3253 1025 2328
Q 1025 1406 1450 917
Q 1875 428 2675 428
Q 3081 428 3442 575
Q 3803 722 4122 1019
L 4122 359
Q 3791 134 3420 21
Q 3050 -91 2638 -91
Q 1578 -91 968 557
Q 359 1206 359 2328
Q 359 3453 968 4101
Q 1578 4750 2638 4750
Q 3056 4750 3426 4639
Q 3797 4528 4122 4306
z
" transform="scale(0.015625)"/>
     </defs>
     <use xlink:href="#DejaVuSans-26"/>
     <use xlink:href="#DejaVuSans-52" transform="translate(69.828125 0)"/>
     <use xlink:href="#DejaVuSans-50" transform="translate(131.015625 0)"/>
     <use xlink:href="#DejaVuSans-45" transform="translate(228.421875 0)"/>
     <use xlink:href="#DejaVuSans-4c" transform="translate(291.90625 0)"/>
     <use xlink:href="#DejaVuSans-51" transform="translate(319.6875 0)"/>
     <use xlink:href="#DejaVuSans-48" transform="translate(383.0625 0)"/>
     <use xlink:href="#DejaVuSans-47" transform="translate(444.59375 0)"/>
     <use xlink:href="#DejaVuSans-3" transform="translate(508.078125 0)"/>
     <use xlink:href="#DejaVuSans-48" transform="translate(539.859375 0)"/>
     <use xlink:href="#DejaVuSans-4f" transform="translate(601.390625 0)"/>
     <use xlink:href="#DejaVuSans-44" transform="translate(629.171875 0)"/>
     <use xlink:href="#DejaVuSans-56" transform="translate(690.453125 0)"/>
     <use xlink:href="#DejaVuSans-57" transform="translate(742.546875 0)"/>
     <use xlink:href="#DejaVuSans-4c" transform="translate(781.75 0)"/>
     <use xlink:href="#DejaVuSans-46" transform="translate(809.53125 0)"/>
     <use xlink:href="#DejaVuSans-3" transform="translate(864.515625 0)"/>
     <use xlink:href="#DejaVuSans-4a" transform="translate(896.296875 0)"/>
     <use xlink:href="#DejaVuSans-55" transform="translate(959.78125 0)"/>
     <use xlink:href="#DejaVuSans-44" transform="translate(1000.890625 0)"/>
     <use xlink:href="#DejaVuSans-59" transform="translate(1062.171875 0)"/>
     <use xlink:href="#DejaVuSans-4c" transform="translate(1121.359375 0)"/>
     <use xlink:href="#DejaVuSans-57" transform="translate(1149.140625 0)"/>
     <use xlink:href="#DejaVuSans-5c" transform="translate(1188.34375 0)"/>
    </g>
    <!-- and vertical displacement uz -->
    <g transform="translate(593.691898 197.579498) scale(0.085 -0.085)">
     <defs>
      <path id="DejaVuSans-5d" d="M 353 3500
L 3084 3500
L 3084 2975
L 922 459
L 3084 459
L 3084 0
L 275 0
L 275 525
L 2438 3041
L 353 3041
L 353 3500
z
" transform="scale(0.015625)"/>
     </defs>
     <use xlink:href="#DejaVuSans-44"/>
     <use xlink:href="#DejaVuSans-51" transform="translate(61.28125 0)"/>
     <use xlink:href="#DejaVuSans-47" transform="translate(124.65625 0)"/>
     <use xlink:href="#DejaVuSans-3" transform="translate(188.140625 0)"/>
     <use xlink:href="#DejaVuSans-59" transform="translate(219.921875 0)"/>
     <use xlink:href="#DejaVuSans-48" transform="translate(279.109375 0)"/>
     <use xlink:href="#DejaVuSans-55" transform="translate(340.640625 0)"/>
     <use xlink:href="#DejaVuSans-57" transform="translate(381.75 0)"/>
     <use xlink:href="#DejaVuSans-4c" transform="translate(420.953125 0)"/>
     <use xlink:href="#DejaVuSans-46" transform="translate(448.734375 0)"/>
     <use xlink:href="#DejaVuSans-44" transform="translate(503.71875 0)"/>
     <use xlink:href="#DejaVuSans-4f" transform="translate(565 0)"/>
     <use xlink:href="#DejaVuSans-3" transform="translate(592.78125 0)"/>
     <use xlink:href="#DejaVuSans-47" transform="translate(624.5625 0)"/>
     <use xlink:href="#DejaVuSans-4c" transform="translate(688.046875 0)"/>
     <use xlink:href="#DejaVuSans-56" transform="translate(715.828125 0)"/>
     <use xlink:href="#DejaVuSans-53" transform="translate(767.921875 0)"/>
     <use xlink:href="#DejaVuSans-4f" transform="translate(831.40625 0)"/>
     <use xlink:href="#DejaVuSans-44" transform="translate(859.1875 0)"/>
     <use xlink:href="#DejaVuSans-46" transform="translate(920.46875 0)"/>
     <use xlink:href="#DejaVuSans-48" transform="translate(975.453125 0)"/>
     <use xlink:href="#DejaVuSans-50" transform="translate(1036.984375 0)"/>
     <use xlink:href="#DejaVuSans-48" transform="translate(1134.390625 0)"/>
     <use xlink:href="#DejaVuSans-51" transform="translate(1195.921875 0)"/>
     <use xlink:href="#DejaVuSans-57" transform="translate(1259.296875 0)"/>
     <use xlink:href="#DejaVuSans-3" transform="translate(1298.5 0)"/>
     <use xlink:href="#DejaVuSans-58" transform="translate(1330.28125 0)"/>
     <use xlink:href="#DejaVuSans-5d" transform="translate(1393.65625 0)"/>
    </g>
   </g>
   <g id="text_7">
    <!-- surface-load branches only -->
    <g style="fill: #6a1b9a" transform="translate(395.77125 237.547934) scale(0.08 -0.08)">
     <defs>
      <path id="DejaVuSans-10" d="M 313 2009
L 1997 2009
L 1997 1497
L 313 1497
L 313 2009
z
" transform="scale(0.015625)"/>
     </defs>
     <use xlink:href="#DejaVuSans-56"/>
     <use xlink:href="#DejaVuSans-58" transform="translate(52.09375 0)"/>
     <use xlink:href="#DejaVuSans-55" transform="translate(115.46875 0)"/>
     <use xlink:href="#DejaVuSans-49" transform="translate(156.578125 0)"/>
     <use xlink:href="#DejaVuSans-44" transform="translate(191.78125 0)"/>
     <use xlink:href="#DejaVuSans-46" transform="translate(253.0625 0)"/>
     <use xlink:href="#DejaVuSans-48" transform="translate(308.046875 0)"/>
     <use xlink:href="#DejaVuSans-10" transform="translate(369.578125 0)"/>
     <use xlink:href="#DejaVuSans-4f" transform="translate(405.65625 0)"/>
     <use xlink:href="#DejaVuSans-52" transform="translate(433.4375 0)"/>
     <use xlink:href="#DejaVuSans-44" transform="translate(494.625 0)"/>
     <use xlink:href="#DejaVuSans-47" transform="translate(555.90625 0)"/>
     <use xlink:href="#DejaVuSans-3" transform="translate(619.390625 0)"/>
     <use xlink:href="#DejaVuSans-45" transform="translate(651.171875 0)"/>
     <use xlink:href="#DejaVuSans-55" transform="translate(714.65625 0)"/>
     <use xlink:href="#DejaVuSans-44" transform="translate(755.765625 0)"/>
     <use xlink:href="#DejaVuSans-51" transform="translate(817.046875 0)"/>
     <use xlink:href="#DejaVuSans-46" transform="translate(880.421875 0)"/>
     <use xlink:href="#DejaVuSans-4b" transform="translate(935.40625 0)"/>
     <use xlink:href="#DejaVuSans-48" transform="translate(998.78125 0)"/>
     <use xlink:href="#DejaVuSans-56" transform="translate(1060.3125 0)"/>
     <use xlink:href="#DejaVuSans-3" transform="translate(1112.40625 0)"/>
     <use xlink:href="#DejaVuSans-52" transform="translate(1144.1875 0)"/>
     <use xlink:href="#DejaVuSans-51" transform="translate(1205.375 0)"/>
     <use xlink:href="#DejaVuSans-4f" transform="translate(1268.75 0)"/>
     <use xlink:href="#DejaVuSans-5c" transform="translate(1296.53125 0)"/>
    </g>
   </g>
   <g id="text_8">
    <!-- Spatial derivative -->
    <g transform="translate(412.150878 300.79686) scale(0.09 -0.09)">
     <defs>
      <path id="DejaVuSans-36" d="M 3425 4513
L 3425 3897
Q 3066 4069 2747 4153
Q 2428 4238 2131 4238
Q 1616 4238 1336 4038
Q 1056 3838 1056 3469
Q 1056 3159 1242 3001
Q 1428 2844 1947 2747
L 2328 2669
Q 3034 2534 3370 2195
Q 3706 1856 3706 1288
Q 3706 609 3251 259
Q 2797 -91 1919 -91
Q 1588 -91 1214 -16
Q 841 59 441 206
L 441 856
Q 825 641 1194 531
Q 1563 422 1919 422
Q 2459 422 2753 634
Q 3047 847 3047 1241
Q 3047 1584 2836 1778
Q 2625 1972 2144 2069
L 1759 2144
Q 1053 2284 737 2584
Q 422 2884 422 3419
Q 422 4038 858 4394
Q 1294 4750 2059 4750
Q 2388 4750 2728 4690
Q 3069 4631 3425 4513
z
" transform="scale(0.015625)"/>
     </defs>
     <use xlink:href="#DejaVuSans-36"/>
     <use xlink:href="#DejaVuSans-53" transform="translate(63.484375 0)"/>
     <use xlink:href="#DejaVuSans-44" transform="translate(126.96875 0)"/>
     <use xlink:href="#DejaVuSans-57" transform="translate(188.25 0)"/>
     <use xlink:href="#DejaVuSans-4c" transform="translate(227.453125 0)"/>
     <use xlink:href="#DejaVuSans-44" transform="translate(255.234375 0)"/>
     <use xlink:href="#DejaVuSans-4f" transform="translate(316.515625 0)"/>
     <use xlink:href="#DejaVuSans-3" transform="translate(344.296875 0)"/>
     <use xlink:href="#DejaVuSans-47" transform="translate(376.078125 0)"/>
     <use xlink:href="#DejaVuSans-48" transform="translate(439.5625 0)"/>
     <use xlink:href="#DejaVuSans-55" transform="translate(501.09375 0)"/>
     <use xlink:href="#DejaVuSans-4c" transform="translate(542.203125 0)"/>
     <use xlink:href="#DejaVuSans-59" transform="translate(569.984375 0)"/>
     <use xlink:href="#DejaVuSans-44" transform="translate(629.171875 0)"/>
     <use xlink:href="#DejaVuSans-57" transform="translate(690.453125 0)"/>
     <use xlink:href="#DejaVuSans-4c" transform="translate(729.65625 0)"/>
     <use xlink:href="#DejaVuSans-59" transform="translate(757.4375 0)"/>
     <use xlink:href="#DejaVuSans-48" transform="translate(816.625 0)"/>
    </g>
    <!-- Tzz  [s⁻²] -->
    <g transform="translate(431.300488 311.599321) scale(0.09 -0.09)">
     <use xlink:href="#DejaVuSans-37"/>
     <use xlink:href="#DejaVuSans-5d" transform="translate(61.078125 0)"/>
     <use xlink:href="#DejaVuSans-5d" transform="translate(113.5625 0)"/>
     <use xlink:href="#DejaVuSans-3" transform="translate(166.046875 0)"/>
     <use xlink:href="#DejaVuSans-3" transform="translate(197.828125 0)"/>
     <use xlink:href="#DejaVuSans-3e" transform="translate(229.609375 0)"/>
     <use xlink:href="#DejaVuSans-56" transform="translate(268.625 0)"/>
     <use xlink:href="#DejaVuSans-b56" transform="translate(320.71875 0)"/>
     <use xlink:href="#DejaVuSans-74" transform="translate(373.5 0)"/>
     <use xlink:href="#DejaVuSans-40" transform="translate(413.59375 0)"/>
    </g>
   </g>
   <g id="text_9">
    <!-- Gravity-gradient instruments -->
    <g transform="translate(593.394398 300.967026) scale(0.085 -0.085)">
     <use xlink:href="#DejaVuSans-2a"/>
     <use xlink:href="#DejaVuSans-55" transform="translate(77.484375 0)"/>
     <use xlink:href="#DejaVuSans-44" transform="translate(118.59375 0)"/>
     <use xlink:href="#DejaVuSans-59" transform="translate(179.875 0)"/>
     <use xlink:href="#DejaVuSans-4c" transform="translate(239.0625 0)"/>
     <use xlink:href="#DejaVuSans-57" transform="translate(266.84375 0)"/>
     <use xlink:href="#DejaVuSans-5c" transform="translate(306.046875 0)"/>
     <use xlink:href="#DejaVuSans-10" transform="translate(363.484375 0)"/>
     <use xlink:href="#DejaVuSans-4a" transform="translate(399.5625 0)"/>
     <use xlink:href="#DejaVuSans-55" transform="translate(463.046875 0)"/>
     <use xlink:href="#DejaVuSans-44" transform="translate(504.15625 0)"/>
     <use xlink:href="#DejaVuSans-47" transform="translate(565.4375 0)"/>
     <use xlink:href="#DejaVuSans-4c" transform="translate(628.921875 0)"/>
     <use xlink:href="#DejaVuSans-48" transform="translate(656.703125 0)"/>
     <use xlink:href="#DejaVuSans-51" transform="translate(718.234375 0)"/>
     <use xlink:href="#DejaVuSans-57" transform="translate(781.609375 0)"/>
     <use xlink:href="#DejaVuSans-3" transform="translate(820.8125 0)"/>
     <use xlink:href="#DejaVuSans-4c" transform="translate(852.59375 0)"/>
     <use xlink:href="#DejaVuSans-51" transform="translate(880.375 0)"/>
     <use xlink:href="#DejaVuSans-56" transform="translate(943.75 0)"/>
     <use xlink:href="#DejaVuSans-57" transform="translate(995.84375 0)"/>
     <use xlink:href="#DejaVuSans-55" transform="translate(1035.046875 0)"/>
     <use xlink:href="#DejaVuSans-58" transform="translate(1076.15625 0)"/>
     <use xlink:href="#DejaVuSans-50" transform="translate(1139.53125 0)"/>
     <use xlink:href="#DejaVuSans-48" transform="translate(1236.9375 0)"/>
     <use xlink:href="#DejaVuSans-51" transform="translate(1298.46875 0)"/>
     <use xlink:href="#DejaVuSans-57" transform="translate(1361.84375 0)"/>
     <use xlink:href="#DejaVuSans-56" transform="translate(1401.046875 0)"/>
    </g>
    <!-- Supplement / future work -->
    <g transform="translate(600.869086 311.16935) scale(0.085 -0.085)">
     <use xlink:href="#DejaVuSans-36"/>
     <use xlink:href="#DejaVuSans-58" transform="translate(63.484375 0)"/>
     <use xlink:href="#DejaVuSans-53" transform="translate(126.859375 0)"/>
     <use xlink:href="#DejaVuSans-53" transform="translate(190.34375 0)"/>
     <use xlink:href="#DejaVuSans-4f" transform="translate(253.828125 0)"/>
     <use xlink:href="#DejaVuSans-48" transform="translate(281.609375 0)"/>
     <use xlink:href="#DejaVuSans-50" transform="translate(343.140625 0)"/>
     <use xlink:href="#DejaVuSans-48" transform="translate(440.546875 0)"/>
     <use xlink:href="#DejaVuSans-51" transform="translate(502.078125 0)"/>
     <use xlink:href="#DejaVuSans-57" transform="translate(565.453125 0)"/>
     <use xlink:href="#DejaVuSans-3" transform="translate(604.65625 0)"/>
     <use xlink:href="#DejaVuSans-12" transform="translate(636.4375 0)"/>
     <use xlink:href="#DejaVuSans-3" transform="translate(670.125 0)"/>
     <use xlink:href="#DejaVuSans-49" transform="translate(701.90625 0)"/>
     <use xlink:href="#DejaVuSans-58" transform="translate(737.109375 0)"/>
     <use xlink:href="#DejaVuSans-57" transform="translate(800.484375 0)"/>
     <use xlink:href="#DejaVuSans-58" transform="translate(839.6875 0)"/>
     <use xlink:href="#DejaVuSans-55" transform="translate(903.0625 0)"/>
     <use xlink:href="#DejaVuSans-48" transform="translate(941.96875 0)"/>
     <use xlink:href="#DejaVuSans-3" transform="translate(1003.5 0)"/>
     <use xlink:href="#DejaVuSans-5a" transform="translate(1035.28125 0)"/>
     <use xlink:href="#DejaVuSans-52" transform="translate(1117.0625 0)"/>
     <use xlink:href="#DejaVuSans-55" transform="translate(1178.25 0)"/>
     <use xlink:href="#DejaVuSans-4e" transform="translate(1219.359375 0)"/>
    </g>
   </g>
   <g id="text_10">
    <!-- Coverage gate -->
    <g transform="translate(789.887558 59.906283) scale(0.078 -0.078)">
     <use xlink:href="#DejaVuSans-26"/>
     <use xlink:href="#DejaVuSans-52" transform="translate(69.828125 0)"/>
     <use xlink:href="#DejaVuSans-59" transform="translate(131.015625 0)"/>
     <use xlink:href="#DejaVuSans-48" transform="translate(190.203125 0)"/>
     <use xlink:href="#DejaVuSans-55" transform="translate(251.734375 0)"/>
     <use xlink:href="#DejaVuSans-44" transform="translate(292.84375 0)"/>
     <use xlink:href="#DejaVuSans-4a" transform="translate(354.125 0)"/>
     <use xlink:href="#DejaVuSans-48" transform="translate(417.609375 0)"/>
     <use xlink:href="#DejaVuSans-3" transform="translate(479.140625 0)"/>
     <use xlink:href="#DejaVuSans-4a" transform="translate(510.921875 0)"/>
     <use xlink:href="#DejaVuSans-44" transform="translate(574.40625 0)"/>
     <use xlink:href="#DejaVuSans-57" transform="translate(635.6875 0)"/>
     <use xlink:href="#DejaVuSans-48" transform="translate(674.890625 0)"/>
    </g>
    <!--  -->
    <g transform="translate(818.608011 69.267806) scale(0.078 -0.078)"/>
    <!-- Same observable -->
    <g transform="translate(784.749917 78.629939) scale(0.078 -0.078)">
     <use xlink:href="#DejaVuSans-36"/>
     <use xlink:href="#DejaVuSans-44" transform="translate(63.484375 0)"/>
     <use xlink:href="#DejaVuSans-50" transform="translate(124.765625 0)"/>
     <use xlink:href="#DejaVuSans-48" transform="translate(222.171875 0)"/>
     <use xlink:href="#DejaVuSans-3" transform="translate(283.703125 0)"/>
     <use xlink:href="#DejaVuSans-52" transform="translate(315.484375 0)"/>
     <use xlink:href="#DejaVuSans-45" transform="translate(376.671875 0)"/>
     <use xlink:href="#DejaVuSans-56" transform="translate(440.15625 0)"/>
     <use xlink:href="#DejaVuSans-48" transform="translate(492.25 0)"/>
     <use xlink:href="#DejaVuSans-55" transform="translate(553.78125 0)"/>
     <use xlink:href="#DejaVuSans-59" transform="translate(594.890625 0)"/>
     <use xlink:href="#DejaVuSans-44" transform="translate(654.078125 0)"/>
     <use xlink:href="#DejaVuSans-45" transform="translate(715.359375 0)"/>
     <use xlink:href="#DejaVuSans-4f" transform="translate(778.84375 0)"/>
     <use xlink:href="#DejaVuSans-48" transform="translate(806.625 0)"/>
    </g>
    <!-- + units -->
    <g transform="translate(804.513167 87.992072) scale(0.078 -0.078)">
     <defs>
      <path id="DejaVuSans-e" d="M 2944 4013
L 2944 2272
L 4684 2272
L 4684 1741
L 2944 1741
L 2944 0
L 2419 0
L 2419 1741
L 678 1741
L 678 2272
L 2419 2272
L 2419 4013
L 2944 4013
z
" transform="scale(0.015625)"/>
     </defs>
     <use xlink:href="#DejaVuSans-e"/>
     <use xlink:href="#DejaVuSans-3" transform="translate(83.796875 0)"/>
     <use xlink:href="#DejaVuSans-58" transform="translate(115.578125 0)"/>
     <use xlink:href="#DejaVuSans-51" transform="translate(178.953125 0)"/>
     <use xlink:href="#DejaVuSans-4c" transform="translate(242.328125 0)"/>
     <use xlink:href="#DejaVuSans-57" transform="translate(270.109375 0)"/>
     <use xlink:href="#DejaVuSans-56" transform="translate(309.3125 0)"/>
    </g>
    <!-- + frequency band -->
    <g transform="translate(783.486074 97.354204) scale(0.078 -0.078)">
     <defs>
      <path id="DejaVuSans-54" d="M 947 1747
Q 947 1113 1208 752
Q 1469 391 1925 391
Q 2381 391 2643 752
Q 2906 1113 2906 1747
Q 2906 2381 2643 2742
Q 2381 3103 1925 3103
Q 1469 3103 1208 2742
Q 947 2381 947 1747
z
M 2906 525
Q 2725 213 2448 61
Q 2172 -91 1784 -91
Q 1150 -91 751 415
Q 353 922 353 1747
Q 353 2572 751 3078
Q 1150 3584 1784 3584
Q 2172 3584 2448 3432
Q 2725 3281 2906 2969
L 2906 3500
L 3481 3500
L 3481 -1331
L 2906 -1331
L 2906 525
z
" transform="scale(0.015625)"/>
     </defs>
     <use xlink:href="#DejaVuSans-e"/>
     <use xlink:href="#DejaVuSans-3" transform="translate(83.796875 0)"/>
     <use xlink:href="#DejaVuSans-49" transform="translate(115.578125 0)"/>
     <use xlink:href="#DejaVuSans-55" transform="translate(150.78125 0)"/>
     <use xlink:href="#DejaVuSans-48" transform="translate(189.6875 0)"/>
     <use xlink:href="#DejaVuSans-54" transform="translate(251.21875 0)"/>
     <use xlink:href="#DejaVuSans-58" transform="translate(314.703125 0)"/>
     <use xlink:href="#DejaVuSans-48" transform="translate(378.078125 0)"/>
     <use xlink:href="#DejaVuSans-51" transform="translate(439.609375 0)"/>
     <use xlink:href="#DejaVuSans-46" transform="translate(502.984375 0)"/>
     <use xlink:href="#DejaVuSans-5c" transform="translate(557.96875 0)"/>
     <use xlink:href="#DejaVuSans-3" transform="translate(617.15625 0)"/>
     <use xlink:href="#DejaVuSans-45" transform="translate(648.9375 0)"/>
     <use xlink:href="#DejaVuSans-44" transform="translate(712.421875 0)"/>
     <use xlink:href="#DejaVuSans-51" transform="translate(773.703125 0)"/>
     <use xlink:href="#DejaVuSans-47" transform="translate(837.078125 0)"/>
    </g>
    <!-- + energy fraction -->
    <g transform="translate(784.289839 106.716337) scale(0.078 -0.078)">
     <use xlink:href="#DejaVuSans-e"/>
     <use xlink:href="#DejaVuSans-3" transform="translate(83.796875 0)"/>
     <use xlink:href="#DejaVuSans-48" transform="translate(115.578125 0)"/>
     <use xlink:href="#DejaVuSans-51" transform="translate(177.109375 0)"/>
     <use xlink:href="#DejaVuSans-48" transform="translate(240.484375 0)"/>
     <use xlink:href="#DejaVuSans-55" transform="translate(302.015625 0)"/>
     <use xlink:href="#DejaVuSans-4a" transform="translate(341.375 0)"/>
     <use xlink:href="#DejaVuSans-5c" transform="translate(404.859375 0)"/>
     <use xlink:href="#DejaVuSans-3" transform="translate(464.046875 0)"/>
     <use xlink:href="#DejaVuSans-49" transform="translate(495.828125 0)"/>
     <use xlink:href="#DejaVuSans-55" transform="translate(531.03125 0)"/>
     <use xlink:href="#DejaVuSans-44" transform="translate(572.140625 0)"/>
     <use xlink:href="#DejaVuSans-46" transform="translate(633.421875 0)"/>
     <use xlink:href="#DejaVuSans-57" transform="translate(688.40625 0)"/>
     <use xlink:href="#DejaVuSans-4c" transform="translate(727.609375 0)"/>
     <use xlink:href="#DejaVuSans-52" transform="translate(755.390625 0)"/>
     <use xlink:href="#DejaVuSans-51" transform="translate(816.578125 0)"/>
    </g>
   </g>
   <g id="text_11">
    <!-- No coverage → no SNR classification -->
    <g style="fill: #b71c1c" transform="translate(745.388179 159.508794) scale(0.08 -0.08)">
     <defs>
      <path id="DejaVuSans-c1c" d="M 5050 2147
L 5050 1866
L 3822 638
L 3447 1013
L 4175 1741
L 366 1741
L 366 2272
L 4175 2272
L 3447 3000
L 3822 3375
L 5050 2147
z
" transform="scale(0.015625)"/>
      <path id="DejaVuSans-35" d="M 2841 2188
Q 3044 2119 3236 1894
Q 3428 1669 3622 1275
L 4263 0
L 3584 0
L 2988 1197
Q 2756 1666 2539 1819
Q 2322 1972 1947 1972
L 1259 1972
L 1259 0
L 628 0
L 628 4666
L 2053 4666
Q 2853 4666 3247 4331
Q 3641 3997 3641 3322
Q 3641 2881 3436 2590
Q 3231 2300 2841 2188
z
M 1259 4147
L 1259 2491
L 2053 2491
Q 2509 2491 2742 2702
Q 2975 2913 2975 3322
Q 2975 3731 2742 3939
Q 2509 4147 2053 4147
L 1259 4147
z
" transform="scale(0.015625)"/>
      <path id="DejaVuSans-13af" d="M 3431 3500
L 3431 0
L 2853 0
L 2853 3053
L 1275 3053
L 1275 0
L 697 0
L 697 3053
L 147 3053
L 147 3500
L 697 3500
L 697 3744
Q 697 4316 967 4589
Q 1238 4863 1797 4863
L 2375 4863
L 2375 4384
L 1825 4384
Q 1516 4384 1395 4259
Q 1275 4134 1275 3809
L 1275 3500
L 3431 3500
z
M 2853 4856
L 3431 4856
L 3431 4128
L 2853 4128
L 2853 4856
z
" transform="scale(0.015625)"/>
     </defs>
     <use xlink:href="#DejaVuSans-31"/>
     <use xlink:href="#DejaVuSans-52" transform="translate(74.8125 0)"/>
     <use xlink:href="#DejaVuSans-3" transform="translate(136 0)"/>
     <use xlink:href="#DejaVuSans-46" transform="translate(167.78125 0)"/>
     <use xlink:href="#DejaVuSans-52" transform="translate(222.765625 0)"/>
     <use xlink:href="#DejaVuSans-59" transform="translate(283.953125 0)"/>
     <use xlink:href="#DejaVuSans-48" transform="translate(343.140625 0)"/>
     <use xlink:href="#DejaVuSans-55" transform="translate(404.671875 0)"/>
     <use xlink:href="#DejaVuSans-44" transform="translate(445.78125 0)"/>
     <use xlink:href="#DejaVuSans-4a" transform="translate(507.0625 0)"/>
     <use xlink:href="#DejaVuSans-48" transform="translate(570.546875 0)"/>
     <use xlink:href="#DejaVuSans-3" transform="translate(632.078125 0)"/>
     <use xlink:href="#DejaVuSans-c1c" transform="translate(663.859375 0)"/>
     <use xlink:href="#DejaVuSans-3" transform="translate(747.65625 0)"/>
     <use xlink:href="#DejaVuSans-51" transform="translate(779.4375 0)"/>
     <use xlink:href="#DejaVuSans-52" transform="translate(842.8125 0)"/>
     <use xlink:href="#DejaVuSans-3" transform="translate(904 0)"/>
     <use xlink:href="#DejaVuSans-36" transform="translate(935.78125 0)"/>
     <use xlink:href="#DejaVuSans-31" transform="translate(999.265625 0)"/>
     <use xlink:href="#DejaVuSans-35" transform="translate(1074.078125 0)"/>
     <use xlink:href="#DejaVuSans-3" transform="translate(1143.5625 0)"/>
     <use xlink:href="#DejaVuSans-46" transform="translate(1175.34375 0)"/>
     <use xlink:href="#DejaVuSans-4f" transform="translate(1230.328125 0)"/>
     <use xlink:href="#DejaVuSans-44" transform="translate(1258.109375 0)"/>
     <use xlink:href="#DejaVuSans-56" transform="translate(1319.390625 0)"/>
     <use xlink:href="#DejaVuSans-56" transform="translate(1371.484375 0)"/>
     <use xlink:href="#DejaVuSans-4c" transform="translate(1423.578125 0)"/>
     <use xlink:href="#DejaVuSans-13af" transform="translate(1451.359375 0)"/>
     <use xlink:href="#DejaVuSans-46" transform="translate(1514.34375 0)"/>
     <use xlink:href="#DejaVuSans-44" transform="translate(1569.328125 0)"/>
     <use xlink:href="#DejaVuSans-57" transform="translate(1630.609375 0)"/>
     <use xlink:href="#DejaVuSans-4c" transform="translate(1669.8125 0)"/>
     <use xlink:href="#DejaVuSans-52" transform="translate(1697.59375 0)"/>
     <use xlink:href="#DejaVuSans-51" transform="translate(1758.78125 0)"/>
    </g>
   </g>
   <g id="text_12">
    <!-- Paper 1 observable framework: components remain separate until comparison is authorized -->
    <g transform="translate(16.343516 18.35022) scale(0.13 -0.13)">
     <defs>
      <path id="DejaVuSans-Bold-33" d="M 588 4666
L 2584 4666
Q 3475 4666 3951 4270
Q 4428 3875 4428 3144
Q 4428 2409 3951 2014
Q 3475 1619 2584 1619
L 1791 1619
L 1791 0
L 588 0
L 588 4666
z
M 1791 3794
L 1791 2491
L 2456 2491
Q 2806 2491 2997 2661
Q 3188 2831 3188 3144
Q 3188 3456 2997 3625
Q 2806 3794 2456 3794
L 1791 3794
z
" transform="scale(0.015625)"/>
      <path id="DejaVuSans-Bold-44" d="M 2106 1575
Q 1756 1575 1579 1456
Q 1403 1338 1403 1106
Q 1403 894 1545 773
Q 1688 653 1941 653
Q 2256 653 2472 879
Q 2688 1106 2688 1447
L 2688 1575
L 2106 1575
z
M 3816 1997
L 3816 0
L 2688 0
L 2688 519
Q 2463 200 2181 54
Q 1900 -91 1497 -91
Q 953 -91 614 226
Q 275 544 275 1050
Q 275 1666 698 1953
Q 1122 2241 2028 2241
L 2688 2241
L 2688 2328
Q 2688 2594 2478 2717
Q 2269 2841 1825 2841
Q 1466 2841 1156 2769
Q 847 2697 581 2553
L 581 3406
Q 941 3494 1303 3539
Q 1666 3584 2028 3584
Q 2975 3584 3395 3211
Q 3816 2838 3816 1997
z
" transform="scale(0.015625)"/>
      <path id="DejaVuSans-Bold-53" d="M 1656 506
L 1656 -1331
L 538 -1331
L 538 3500
L 1656 3500
L 1656 2988
Q 1888 3294 2169 3439
Q 2450 3584 2816 3584
Q 3463 3584 3878 3070
Q 4294 2556 4294 1747
Q 4294 938 3878 423
Q 3463 -91 2816 -91
Q 2450 -91 2169 54
Q 1888 200 1656 506
z
M 2400 2772
Q 2041 2772 1848 2508
Q 1656 2244 1656 1747
Q 1656 1250 1848 986
Q 2041 722 2400 722
Q 2759 722 2948 984
Q 3138 1247 3138 1747
Q 3138 2247 2948 2509
Q 2759 2772 2400 2772
z
" transform="scale(0.015625)"/>
      <path id="DejaVuSans-Bold-48" d="M 4031 1759
L 4031 1441
L 1416 1441
Q 1456 1047 1700 850
Q 1944 653 2381 653
Q 2734 653 3104 758
Q 3475 863 3866 1075
L 3866 213
Q 3469 63 3072 -14
Q 2675 -91 2278 -91
Q 1328 -91 801 392
Q 275 875 275 1747
Q 275 2603 792 3093
Q 1309 3584 2216 3584
Q 3041 3584 3536 3087
Q 4031 2591 4031 1759
z
M 2881 2131
Q 2881 2450 2695 2645
Q 2509 2841 2209 2841
Q 1884 2841 1681 2658
Q 1478 2475 1428 2131
L 2881 2131
z
" transform="scale(0.015625)"/>
      <path id="DejaVuSans-Bold-55" d="M 3138 2547
Q 2991 2616 2845 2648
Q 2700 2681 2553 2681
Q 2122 2681 1889 2404
Q 1656 2128 1656 1613
L 1656 0
L 538 0
L 538 3500
L 1656 3500
L 1656 2925
Q 1872 3269 2151 3426
Q 2431 3584 2822 3584
Q 2878 3584 2943 3579
Q 3009 3575 3134 3559
L 3138 2547
z
" transform="scale(0.015625)"/>
      <path id="DejaVuSans-Bold-3" transform="scale(0.015625)"/>
      <path id="DejaVuSans-Bold-14" d="M 750 831
L 1813 831
L 1813 3847
L 722 3622
L 722 4441
L 1806 4666
L 2950 4666
L 2950 831
L 4013 831
L 4013 0
L 750 0
L 750 831
z
" transform="scale(0.015625)"/>
      <path id="DejaVuSans-Bold-52" d="M 2203 2784
Q 1831 2784 1636 2517
Q 1441 2250 1441 1747
Q 1441 1244 1636 976
Q 1831 709 2203 709
Q 2569 709 2762 976
Q 2956 1244 2956 1747
Q 2956 2250 2762 2517
Q 2569 2784 2203 2784
z
M 2203 3584
Q 3106 3584 3614 3096
Q 4122 2609 4122 1747
Q 4122 884 3614 396
Q 3106 -91 2203 -91
Q 1297 -91 786 396
Q 275 884 275 1747
Q 275 2609 786 3096
Q 1297 3584 2203 3584
z
" transform="scale(0.015625)"/>
      <path id="DejaVuSans-Bold-45" d="M 2400 722
Q 2759 722 2948 984
Q 3138 1247 3138 1747
Q 3138 2247 2948 2509
Q 2759 2772 2400 2772
Q 2041 2772 1848 2508
Q 1656 2244 1656 1747
Q 1656 1250 1848 986
Q 2041 722 2400 722
z
M 1656 2988
Q 1888 3294 2169 3439
Q 2450 3584 2816 3584
Q 3463 3584 3878 3070
Q 4294 2556 4294 1747
Q 4294 938 3878 423
Q 3463 -91 2816 -91
Q 2450 -91 2169 54
Q 1888 200 1656 506
L 1656 0
L 538 0
L 538 4863
L 1656 4863
L 1656 2988
z
" transform="scale(0.015625)"/>
      <path id="DejaVuSans-Bold-56" d="M 3272 3391
L 3272 2541
Q 2913 2691 2578 2766
Q 2244 2841 1947 2841
Q 1628 2841 1473 2761
Q 1319 2681 1319 2516
Q 1319 2381 1436 2309
Q 1553 2238 1856 2203
L 2053 2175
Q 2913 2066 3209 1816
Q 3506 1566 3506 1031
Q 3506 472 3093 190
Q 2681 -91 1863 -91
Q 1516 -91 1145 -36
Q 775 19 384 128
L 384 978
Q 719 816 1070 734
Q 1422 653 1784 653
Q 2113 653 2278 743
Q 2444 834 2444 1013
Q 2444 1163 2330 1236
Q 2216 1309 1875 1350
L 1678 1375
Q 931 1469 631 1722
Q 331 1975 331 2491
Q 331 3047 712 3315
Q 1094 3584 1881 3584
Q 2191 3584 2531 3537
Q 2872 3491 3272 3391
z
" transform="scale(0.015625)"/>
      <path id="DejaVuSans-Bold-59" d="M 97 3500
L 1216 3500
L 2088 1081
L 2956 3500
L 4078 3500
L 2700 0
L 1472 0
L 97 3500
z
" transform="scale(0.015625)"/>
      <path id="DejaVuSans-Bold-4f" d="M 538 4863
L 1656 4863
L 1656 0
L 538 0
L 538 4863
z
" transform="scale(0.015625)"/>
      <path id="DejaVuSans-Bold-49" d="M 2841 4863
L 2841 4128
L 2222 4128
Q 1984 4128 1890 4042
Q 1797 3956 1797 3744
L 1797 3500
L 2753 3500
L 2753 2700
L 1797 2700
L 1797 0
L 678 0
L 678 2700
L 122 2700
L 122 3500
L 678 3500
L 678 3744
Q 678 4316 997 4589
Q 1316 4863 1984 4863
L 2841 4863
z
" transform="scale(0.015625)"/>
      <path id="DejaVuSans-Bold-50" d="M 3781 2919
Q 3994 3244 4286 3414
Q 4578 3584 4928 3584
Q 5531 3584 5847 3212
Q 6163 2841 6163 2131
L 6163 0
L 5038 0
L 5038 1825
Q 5041 1866 5042 1909
Q 5044 1953 5044 2034
Q 5044 2406 4934 2573
Q 4825 2741 4581 2741
Q 4263 2741 4089 2478
Q 3916 2216 3909 1719
L 3909 0
L 2784 0
L 2784 1825
Q 2784 2406 2684 2573
Q 2584 2741 2328 2741
Q 2006 2741 1831 2477
Q 1656 2213 1656 1722
L 1656 0
L 531 0
L 531 3500
L 1656 3500
L 1656 2988
Q 1863 3284 2130 3434
Q 2397 3584 2719 3584
Q 3081 3584 3359 3409
Q 3638 3234 3781 2919
z
" transform="scale(0.015625)"/>
      <path id="DejaVuSans-Bold-5a" d="M 225 3500
L 1313 3500
L 1900 1088
L 2491 3500
L 3425 3500
L 4013 1113
L 4603 3500
L 5691 3500
L 4769 0
L 3547 0
L 2956 2406
L 2369 0
L 1147 0
L 225 3500
z
" transform="scale(0.015625)"/>
      <path id="DejaVuSans-Bold-4e" d="M 538 4863
L 1656 4863
L 1656 2216
L 2944 3500
L 4244 3500
L 2534 1894
L 4378 0
L 3022 0
L 1656 1459
L 1656 0
L 538 0
L 538 4863
z
" transform="scale(0.015625)"/>
      <path id="DejaVuSans-Bold-1d" d="M 716 3500
L 1844 3500
L 1844 2291
L 716 2291
L 716 3500
z
M 716 1209
L 1844 1209
L 1844 0
L 716 0
L 716 1209
z
" transform="scale(0.015625)"/>
      <path id="DejaVuSans-Bold-46" d="M 3366 3391
L 3366 2478
Q 3138 2634 2908 2709
Q 2678 2784 2431 2784
Q 1963 2784 1702 2511
Q 1441 2238 1441 1747
Q 1441 1256 1702 982
Q 1963 709 2431 709
Q 2694 709 2930 787
Q 3166 866 3366 1019
L 3366 103
Q 3103 6 2833 -42
Q 2563 -91 2291 -91
Q 1344 -91 809 395
Q 275 881 275 1747
Q 275 2613 809 3098
Q 1344 3584 2291 3584
Q 2566 3584 2833 3536
Q 3100 3488 3366 3391
z
" transform="scale(0.015625)"/>
      <path id="DejaVuSans-Bold-51" d="M 4056 2131
L 4056 0
L 2931 0
L 2931 347
L 2931 1631
Q 2931 2084 2911 2256
Q 2891 2428 2841 2509
Q 2775 2619 2662 2680
Q 2550 2741 2406 2741
Q 2056 2741 1856 2470
Q 1656 2200 1656 1722
L 1656 0
L 538 0
L 538 3500
L 1656 3500
L 1656 2988
Q 1909 3294 2193 3439
Q 2478 3584 2822 3584
Q 3428 3584 3742 3212
Q 4056 2841 4056 2131
z
" transform="scale(0.015625)"/>
      <path id="DejaVuSans-Bold-57" d="M 1759 4494
L 1759 3500
L 2913 3500
L 2913 2700
L 1759 2700
L 1759 1216
Q 1759 972 1856 886
Q 1953 800 2241 800
L 2816 800
L 2816 0
L 1856 0
Q 1194 0 917 276
Q 641 553 641 1216
L 641 2700
L 84 2700
L 84 3500
L 641 3500
L 641 4494
L 1759 4494
z
" transform="scale(0.015625)"/>
      <path id="DejaVuSans-Bold-4c" d="M 538 3500
L 1656 3500
L 1656 0
L 538 0
L 538 3500
z
M 538 4863
L 1656 4863
L 1656 3950
L 538 3950
L 538 4863
z
" transform="scale(0.015625)"/>
      <path id="DejaVuSans-Bold-58" d="M 500 1363
L 500 3500
L 1625 3500
L 1625 3150
Q 1625 2866 1622 2436
Q 1619 2006 1619 1863
Q 1619 1441 1641 1255
Q 1663 1069 1716 984
Q 1784 875 1895 815
Q 2006 756 2150 756
Q 2500 756 2700 1025
Q 2900 1294 2900 1772
L 2900 3500
L 4019 3500
L 4019 0
L 2900 0
L 2900 506
Q 2647 200 2364 54
Q 2081 -91 1741 -91
Q 1134 -91 817 281
Q 500 653 500 1363
z
" transform="scale(0.015625)"/>
      <path id="DejaVuSans-Bold-4b" d="M 4056 2131
L 4056 0
L 2931 0
L 2931 347
L 2931 1625
Q 2931 2084 2911 2256
Q 2891 2428 2841 2509
Q 2775 2619 2662 2680
Q 2550 2741 2406 2741
Q 2056 2741 1856 2470
Q 1656 2200 1656 1722
L 1656 0
L 538 0
L 538 4863
L 1656 4863
L 1656 2988
Q 1909 3294 2193 3439
Q 2478 3584 2822 3584
Q 3428 3584 3742 3212
Q 4056 2841 4056 2131
z
" transform="scale(0.015625)"/>
      <path id="DejaVuSans-Bold-5d" d="M 366 3500
L 3419 3500
L 3419 2719
L 1575 800
L 3419 800
L 3419 0
L 288 0
L 288 781
L 2131 2700
L 366 2700
L 366 3500
z
" transform="scale(0.015625)"/>
      <path id="DejaVuSans-Bold-47" d="M 2919 2988
L 2919 4863
L 4044 4863
L 4044 0
L 2919 0
L 2919 506
Q 2688 197 2409 53
Q 2131 -91 1766 -91
Q 1119 -91 703 423
Q 288 938 288 1747
Q 288 2556 703 3070
Q 1119 3584 1766 3584
Q 2128 3584 2408 3439
Q 2688 3294 2919 2988
z
M 2181 722
Q 2541 722 2730 984
Q 2919 1247 2919 1747
Q 2919 2247 2730 2509
Q 2541 2772 2181 2772
Q 1825 2772 1636 2509
Q 1447 2247 1447 1747
Q 1447 1247 1636 984
Q 1825 722 2181 722
z
" transform="scale(0.015625)"/>
     </defs>
     <use xlink:href="#DejaVuSans-Bold-33"/>
     <use xlink:href="#DejaVuSans-Bold-44" transform="translate(70.609375 0)"/>
     <use xlink:href="#DejaVuSans-Bold-53" transform="translate(138.09375 0)"/>
     <use xlink:href="#DejaVuSans-Bold-48" transform="translate(209.671875 0)"/>
     <use xlink:href="#DejaVuSans-Bold-55" transform="translate(277.5 0)"/>
     <use xlink:href="#DejaVuSans-Bold-3" transform="translate(326.8125 0)"/>
     <use xlink:href="#DejaVuSans-Bold-14" transform="translate(361.625 0)"/>
     <use xlink:href="#DejaVuSans-Bold-3" transform="translate(431.203125 0)"/>
     <use xlink:href="#DejaVuSans-Bold-52" transform="translate(466.015625 0)"/>
     <use xlink:href="#DejaVuSans-Bold-45" transform="translate(534.71875 0)"/>
     <use xlink:href="#DejaVuSans-Bold-56" transform="translate(606.296875 0)"/>
     <use xlink:href="#DejaVuSans-Bold-48" transform="translate(665.8125 0)"/>
     <use xlink:href="#DejaVuSans-Bold-55" transform="translate(733.640625 0)"/>
     <use xlink:href="#DejaVuSans-Bold-59" transform="translate(782.953125 0)"/>
     <use xlink:href="#DejaVuSans-Bold-44" transform="translate(848.140625 0)"/>
     <use xlink:href="#DejaVuSans-Bold-45" transform="translate(915.625 0)"/>
     <use xlink:href="#DejaVuSans-Bold-4f" transform="translate(987.203125 0)"/>
     <use xlink:href="#DejaVuSans-Bold-48" transform="translate(1021.484375 0)"/>
     <use xlink:href="#DejaVuSans-Bold-3" transform="translate(1089.3125 0)"/>
     <use xlink:href="#DejaVuSans-Bold-49" transform="translate(1124.125 0)"/>
     <use xlink:href="#DejaVuSans-Bold-55" transform="translate(1167.625 0)"/>
     <use xlink:href="#DejaVuSans-Bold-44" transform="translate(1216.9375 0)"/>
     <use xlink:href="#DejaVuSans-Bold-50" transform="translate(1284.421875 0)"/>
     <use xlink:href="#DejaVuSans-Bold-48" transform="translate(1388.625 0)"/>
     <use xlink:href="#DejaVuSans-Bold-5a" transform="translate(1456.453125 0)"/>
     <use xlink:href="#DejaVuSans-Bold-52" transform="translate(1548.84375 0)"/>
     <use xlink:href="#DejaVuSans-Bold-55" transform="translate(1617.546875 0)"/>
     <use xlink:href="#DejaVuSans-Bold-4e" transform="translate(1666.859375 0)"/>
     <use xlink:href="#DejaVuSans-Bold-1d" transform="translate(1733.359375 0)"/>
     <use xlink:href="#DejaVuSans-Bold-3" transform="translate(1773.34375 0)"/>
     <use xlink:href="#DejaVuSans-Bold-46" transform="translate(1808.15625 0)"/>
     <use xlink:href="#DejaVuSans-Bold-52" transform="translate(1867.4375 0)"/>
     <use xlink:href="#DejaVuSans-Bold-50" transform="translate(1936.140625 0)"/>
     <use xlink:href="#DejaVuSans-Bold-53" transform="translate(2040.34375 0)"/>
     <use xlink:href="#DejaVuSans-Bold-52" transform="translate(2111.921875 0)"/>
     <use xlink:href="#DejaVuSans-Bold-51" transform="translate(2180.625 0)"/>
     <use xlink:href="#DejaVuSans-Bold-48" transform="translate(2251.8125 0)"/>
     <use xlink:href="#DejaVuSans-Bold-51" transform="translate(2319.640625 0)"/>
     <use xlink:href="#DejaVuSans-Bold-57" transform="translate(2390.828125 0)"/>
     <use xlink:href="#DejaVuSans-Bold-56" transform="translate(2438.625 0)"/>
     <use xlink:href="#DejaVuSans-Bold-3" transform="translate(2498.140625 0)"/>
     <use xlink:href="#DejaVuSans-Bold-55" transform="translate(2532.953125 0)"/>
     <use xlink:href="#DejaVuSans-Bold-48" transform="translate(2582.265625 0)"/>
     <use xlink:href="#DejaVuSans-Bold-50" transform="translate(2650.09375 0)"/>
     <use xlink:href="#DejaVuSans-Bold-44" transform="translate(2754.296875 0)"/>
     <use xlink:href="#DejaVuSans-Bold-4c" transform="translate(2821.78125 0)"/>
     <use xlink:href="#DejaVuSans-Bold-51" transform="translate(2856.0625 0)"/>
     <use xlink:href="#DejaVuSans-Bold-3" transform="translate(2927.25 0)"/>
     <use xlink:href="#DejaVuSans-Bold-56" transform="translate(2962.0625 0)"/>
     <use xlink:href="#DejaVuSans-Bold-48" transform="translate(3021.578125 0)"/>
     <use xlink:href="#DejaVuSans-Bold-53" transform="translate(3089.40625 0)"/>
     <use xlink:href="#DejaVuSans-Bold-44" transform="translate(3160.984375 0)"/>
     <use xlink:href="#DejaVuSans-Bold-55" transform="translate(3228.46875 0)"/>
     <use xlink:href="#DejaVuSans-Bold-44" transform="translate(3277.78125 0)"/>
     <use xlink:href="#DejaVuSans-Bold-57" transform="translate(3345.265625 0)"/>
     <use xlink:href="#DejaVuSans-Bold-48" transform="translate(3393.0625 0)"/>
     <use xlink:href="#DejaVuSans-Bold-3" transform="translate(3460.890625 0)"/>
     <use xlink:href="#DejaVuSans-Bold-58" transform="translate(3495.703125 0)"/>
     <use xlink:href="#DejaVuSans-Bold-51" transform="translate(3566.890625 0)"/>
     <use xlink:href="#DejaVuSans-Bold-57" transform="translate(3638.078125 0)"/>
     <use xlink:href="#DejaVuSans-Bold-4c" transform="translate(3685.875 0)"/>
     <use xlink:href="#DejaVuSans-Bold-4f" transform="translate(3720.15625 0)"/>
     <use xlink:href="#DejaVuSans-Bold-3" transform="translate(3754.4375 0)"/>
     <use xlink:href="#DejaVuSans-Bold-46" transform="translate(3789.25 0)"/>
     <use xlink:href="#DejaVuSans-Bold-52" transform="translate(3848.53125 0)"/>
     <use xlink:href="#DejaVuSans-Bold-50" transform="translate(3917.234375 0)"/>
     <use xlink:href="#DejaVuSans-Bold-53" transform="translate(4021.4375 0)"/>
     <use xlink:href="#DejaVuSans-Bold-44" transform="translate(4093.015625 0)"/>
     <use xlink:href="#DejaVuSans-Bold-55" transform="translate(4160.5 0)"/>
     <use xlink:href="#DejaVuSans-Bold-4c" transform="translate(4209.8125 0)"/>
     <use xlink:href="#DejaVuSans-Bold-56" transform="translate(4244.09375 0)"/>
     <use xlink:href="#DejaVuSans-Bold-52" transform="translate(4303.609375 0)"/>
     <use xlink:href="#DejaVuSans-Bold-51" transform="translate(4372.3125 0)"/>
     <use xlink:href="#DejaVuSans-Bold-3" transform="translate(4443.5 0)"/>
     <use xlink:href="#DejaVuSans-Bold-4c" transform="translate(4478.3125 0)"/>
     <use xlink:href="#DejaVuSans-Bold-56" transform="translate(4512.59375 0)"/>
     <use xlink:href="#DejaVuSans-Bold-3" transform="translate(4572.109375 0)"/>
     <use xlink:href="#DejaVuSans-Bold-44" transform="translate(4606.921875 0)"/>
     <use xlink:href="#DejaVuSans-Bold-58" transform="translate(4674.40625 0)"/>
     <use xlink:href="#DejaVuSans-Bold-57" transform="translate(4745.59375 0)"/>
     <use xlink:href="#DejaVuSans-Bold-4b" transform="translate(4793.390625 0)"/>
     <use xlink:href="#DejaVuSans-Bold-52" transform="translate(4864.578125 0)"/>
     <use xlink:href="#DejaVuSans-Bold-55" transform="translate(4933.28125 0)"/>
     <use xlink:href="#DejaVuSans-Bold-4c" transform="translate(4982.59375 0)"/>
     <use xlink:href="#DejaVuSans-Bold-5d" transform="translate(5016.875 0)"/>
     <use xlink:href="#DejaVuSans-Bold-48" transform="translate(5075.078125 0)"/>
     <use xlink:href="#DejaVuSans-Bold-47" transform="translate(5142.90625 0)"/>
    </g>
   </g>
   <g id="text_13">
    <!-- P1-E006/P1-E008: direct radial gravity for all six families   |   Helgoland: components separate   |   Total observable: not inferred -->
    <g style="fill: #37474f" transform="translate(16.343516 365.259768) scale(0.082 -0.082)">
     <defs>
      <path id="DejaVuSans-33" d="M 1259 4147
L 1259 2394
L 2053 2394
Q 2494 2394 2734 2622
Q 2975 2850 2975 3272
Q 2975 3691 2734 3919
Q 2494 4147 2053 4147
L 1259 4147
z
M 628 4666
L 2053 4666
Q 2838 4666 3239 4311
Q 3641 3956 3641 3272
Q 3641 2581 3239 2228
Q 2838 1875 2053 1875
L 1259 1875
L 1259 0
L 628 0
L 628 4666
z
" transform="scale(0.015625)"/>
      <path id="DejaVuSans-14" d="M 794 531
L 1825 531
L 1825 4091
L 703 3866
L 703 4441
L 1819 4666
L 2450 4666
L 2450 531
L 3481 531
L 3481 0
L 794 0
L 794 531
z
" transform="scale(0.015625)"/>
      <path id="DejaVuSans-13" d="M 2034 4250
Q 1547 4250 1301 3770
Q 1056 3291 1056 2328
Q 1056 1369 1301 889
Q 1547 409 2034 409
Q 2525 409 2770 889
Q 3016 1369 3016 2328
Q 3016 3291 2770 3770
Q 2525 4250 2034 4250
z
M 2034 4750
Q 2819 4750 3233 4129
Q 3647 3509 3647 2328
Q 3647 1150 3233 529
Q 2819 -91 2034 -91
Q 1250 -91 836 529
Q 422 1150 422 2328
Q 422 3509 836 4129
Q 1250 4750 2034 4750
z
" transform="scale(0.015625)"/>
      <path id="DejaVuSans-19" d="M 2113 2584
Q 1688 2584 1439 2293
Q 1191 2003 1191 1497
Q 1191 994 1439 701
Q 1688 409 2113 409
Q 2538 409 2786 701
Q 3034 994 3034 1497
Q 3034 2003 2786 2293
Q 2538 2584 2113 2584
z
M 3366 4563
L 3366 3988
Q 3128 4100 2886 4159
Q 2644 4219 2406 4219
Q 1781 4219 1451 3797
Q 1122 3375 1075 2522
Q 1259 2794 1537 2939
Q 1816 3084 2150 3084
Q 2853 3084 3261 2657
Q 3669 2231 3669 1497
Q 3669 778 3244 343
Q 2819 -91 2113 -91
Q 1303 -91 875 529
Q 447 1150 447 2328
Q 447 3434 972 4092
Q 1497 4750 2381 4750
Q 2619 4750 2861 4703
Q 3103 4656 3366 4563
z
" transform="scale(0.015625)"/>
      <path id="DejaVuSans-1b" d="M 2034 2216
Q 1584 2216 1326 1975
Q 1069 1734 1069 1313
Q 1069 891 1326 650
Q 1584 409 2034 409
Q 2484 409 2743 651
Q 3003 894 3003 1313
Q 3003 1734 2745 1975
Q 2488 2216 2034 2216
z
M 1403 2484
Q 997 2584 770 2862
Q 544 3141 544 3541
Q 544 4100 942 4425
Q 1341 4750 2034 4750
Q 2731 4750 3128 4425
Q 3525 4100 3525 3541
Q 3525 3141 3298 2862
Q 3072 2584 2669 2484
Q 3125 2378 3379 2068
Q 3634 1759 3634 1313
Q 3634 634 3220 271
Q 2806 -91 2034 -91
Q 1263 -91 848 271
Q 434 634 434 1313
Q 434 1759 690 2068
Q 947 2378 1403 2484
z
M 1172 3481
Q 1172 3119 1398 2916
Q 1625 2713 2034 2713
Q 2441 2713 2670 2916
Q 2900 3119 2900 3481
Q 2900 3844 2670 4047
Q 2441 4250 2034 4250
Q 1625 4250 1398 4047
Q 1172 3844 1172 3481
z
" transform="scale(0.015625)"/>
      <path id="DejaVuSans-1d" d="M 750 794
L 1409 794
L 1409 0
L 750 0
L 750 794
z
M 750 3309
L 1409 3309
L 1409 2516
L 750 2516
L 750 3309
z
" transform="scale(0.015625)"/>
      <path id="DejaVuSans-5b" d="M 3513 3500
L 2247 1797
L 3578 0
L 2900 0
L 1881 1375
L 863 0
L 184 0
L 1544 1831
L 300 3500
L 978 3500
L 1906 2253
L 2834 3500
L 3513 3500
z
" transform="scale(0.015625)"/>
      <path id="DejaVuSans-2b" d="M 628 4666
L 1259 4666
L 1259 2753
L 3553 2753
L 3553 4666
L 4184 4666
L 4184 0
L 3553 0
L 3553 2222
L 1259 2222
L 1259 0
L 628 0
L 628 4666
z
" transform="scale(0.015625)"/>
     </defs>
     <use xlink:href="#DejaVuSans-33"/>
     <use xlink:href="#DejaVuSans-14" transform="translate(60.296875 0)"/>
     <use xlink:href="#DejaVuSans-10" transform="translate(123.921875 0)"/>
     <use xlink:href="#DejaVuSans-28" transform="translate(160 0)"/>
     <use xlink:href="#DejaVuSans-13" transform="translate(223.1875 0)"/>
     <use xlink:href="#DejaVuSans-13" transform="translate(286.8125 0)"/>
     <use xlink:href="#DejaVuSans-19" transform="translate(350.4375 0)"/>
     <use xlink:href="#DejaVuSans-12" transform="translate(414.0625 0)"/>
     <use xlink:href="#DejaVuSans-33" transform="translate(447.75 0)"/>
     <use xlink:href="#DejaVuSans-14" transform="translate(508.046875 0)"/>
     <use xlink:href="#DejaVuSans-10" transform="translate(571.671875 0)"/>
     <use xlink:href="#DejaVuSans-28" transform="translate(607.75 0)"/>
     <use xlink:href="#DejaVuSans-13" transform="translate(670.9375 0)"/>
     <use xlink:href="#DejaVuSans-13" transform="translate(734.5625 0)"/>
     <use xlink:href="#DejaVuSans-1b" transform="translate(798.1875 0)"/>
     <use xlink:href="#DejaVuSans-1d" transform="translate(861.8125 0)"/>
     <use xlink:href="#DejaVuSans-3" transform="translate(895.5 0)"/>
     <use xlink:href="#DejaVuSans-47" transform="translate(927.28125 0)"/>
     <use xlink:href="#DejaVuSans-4c" transform="translate(990.765625 0)"/>
     <use xlink:href="#DejaVuSans-55" transform="translate(1018.546875 0)"/>
     <use xlink:href="#DejaVuSans-48" transform="translate(1057.453125 0)"/>
     <use xlink:href="#DejaVuSans-46" transform="translate(1118.984375 0)"/>
     <use xlink:href="#DejaVuSans-57" transform="translate(1173.96875 0)"/>
     <use xlink:href="#DejaVuSans-3" transform="translate(1213.171875 0)"/>
     <use xlink:href="#DejaVuSans-55" transform="translate(1244.953125 0)"/>
     <use xlink:href="#DejaVuSans-44" transform="translate(1286.0625 0)"/>
     <use xlink:href="#DejaVuSans-47" transform="translate(1347.34375 0)"/>
     <use xlink:href="#DejaVuSans-4c" transform="translate(1410.828125 0)"/>
     <use xlink:href="#DejaVuSans-44" transform="translate(1438.609375 0)"/>
     <use xlink:href="#DejaVuSans-4f" transform="translate(1499.890625 0)"/>
     <use xlink:href="#DejaVuSans-3" transform="translate(1527.671875 0)"/>
     <use xlink:href="#DejaVuSans-4a" transform="translate(1559.453125 0)"/>
     <use xlink:href="#DejaVuSans-55" transform="translate(1622.9375 0)"/>
     <use xlink:href="#DejaVuSans-44" transform="translate(1664.046875 0)"/>
     <use xlink:href="#DejaVuSans-59" transform="translate(1725.328125 0)"/>
     <use xlink:href="#DejaVuSans-4c" transform="translate(1784.515625 0)"/>
     <use xlink:href="#DejaVuSans-57" transform="translate(1812.296875 0)"/>
     <use xlink:href="#DejaVuSans-5c" transform="translate(1851.5 0)"/>
     <use xlink:href="#DejaVuSans-3" transform="translate(1910.6875 0)"/>
     <use xlink:href="#DejaVuSans-49" transform="translate(1942.46875 0)"/>
     <use xlink:href="#DejaVuSans-52" transform="translate(1977.671875 0)"/>
     <use xlink:href="#DejaVuSans-55" transform="translate(2038.859375 0)"/>
     <use xlink:href="#DejaVuSans-3" transform="translate(2079.96875 0)"/>
     <use xlink:href="#DejaVuSans-44" transform="translate(2111.75 0)"/>
     <use xlink:href="#DejaVuSans-4f" transform="translate(2173.03125 0)"/>
     <use xlink:href="#DejaVuSans-4f" transform="translate(2200.8125 0)"/>
     <use xlink:href="#DejaVuSans-3" transform="translate(2228.59375 0)"/>
     <use xlink:href="#DejaVuSans-56" transform="translate(2260.375 0)"/>
     <use xlink:href="#DejaVuSans-4c" transform="translate(2312.46875 0)"/>
     <use xlink:href="#DejaVuSans-5b" transform="translate(2340.25 0)"/>
     <use xlink:href="#DejaVuSans-3" transform="translate(2399.4375 0)"/>
     <use xlink:href="#DejaVuSans-49" transform="translate(2431.21875 0)"/>
     <use xlink:href="#DejaVuSans-44" transform="translate(2466.421875 0)"/>
     <use xlink:href="#DejaVuSans-50" transform="translate(2527.703125 0)"/>
     <use xlink:href="#DejaVuSans-4c" transform="translate(2625.109375 0)"/>
     <use xlink:href="#DejaVuSans-4f" transform="translate(2652.890625 0)"/>
     <use xlink:href="#DejaVuSans-4c" transform="translate(2680.671875 0)"/>
     <use xlink:href="#DejaVuSans-48" transform="translate(2708.453125 0)"/>
     <use xlink:href="#DejaVuSans-56" transform="translate(2769.984375 0)"/>
     <use xlink:href="#DejaVuSans-3" transform="translate(2822.078125 0)"/>
     <use xlink:href="#DejaVuSans-3" transform="translate(2853.859375 0)"/>
     <use xlink:href="#DejaVuSans-3" transform="translate(2885.640625 0)"/>
     <use xlink:href="#DejaVuSans-5f" transform="translate(2917.421875 0)"/>
     <use xlink:href="#DejaVuSans-3" transform="translate(2951.109375 0)"/>
     <use xlink:href="#DejaVuSans-3" transform="translate(2982.890625 0)"/>
     <use xlink:href="#DejaVuSans-3" transform="translate(3014.671875 0)"/>
     <use xlink:href="#DejaVuSans-2b" transform="translate(3046.453125 0)"/>
     <use xlink:href="#DejaVuSans-48" transform="translate(3121.65625 0)"/>
     <use xlink:href="#DejaVuSans-4f" transform="translate(3183.1875 0)"/>
     <use xlink:href="#DejaVuSans-4a" transform="translate(3210.96875 0)"/>
     <use xlink:href="#DejaVuSans-52" transform="translate(3274.453125 0)"/>
     <use xlink:href="#DejaVuSans-4f" transform="translate(3335.640625 0)"/>
     <use xlink:href="#DejaVuSans-44" transform="translate(3363.421875 0)"/>
     <use xlink:href="#DejaVuSans-51" transform="translate(3424.703125 0)"/>
     <use xlink:href="#DejaVuSans-47" transform="translate(3488.078125 0)"/>
     <use xlink:href="#DejaVuSans-1d" transform="translate(3551.5625 0)"/>
     <use xlink:href="#DejaVuSans-3" transform="translate(3585.25 0)"/>
     <use xlink:href="#DejaVuSans-46" transform="translate(3617.03125 0)"/>
     <use xlink:href="#DejaVuSans-52" transform="translate(3672.015625 0)"/>
     <use xlink:href="#DejaVuSans-50" transform="translate(3733.203125 0)"/>
     <use xlink:href="#DejaVuSans-53" transform="translate(3830.609375 0)"/>
     <use xlink:href="#DejaVuSans-52" transform="translate(3894.09375 0)"/>
     <use xlink:href="#DejaVuSans-51" transform="translate(3955.28125 0)"/>
     <use xlink:href="#DejaVuSans-48" transform="translate(4018.65625 0)"/>
     <use xlink:href="#DejaVuSans-51" transform="translate(4080.1875 0)"/>
     <use xlink:href="#DejaVuSans-57" transform="translate(4143.5625 0)"/>
     <use xlink:href="#DejaVuSans-56" transform="translate(4182.765625 0)"/>
     <use xlink:href="#DejaVuSans-3" transform="translate(4234.859375 0)"/>
     <use xlink:href="#DejaVuSans-56" transform="translate(4266.640625 0)"/>
     <use xlink:href="#DejaVuSans-48" transform="translate(4318.734375 0)"/>
     <use xlink:href="#DejaVuSans-53" transform="translate(4380.265625 0)"/>
     <use xlink:href="#DejaVuSans-44" transform="translate(4443.75 0)"/>
     <use xlink:href="#DejaVuSans-55" transform="translate(4505.03125 0)"/>
     <use xlink:href="#DejaVuSans-44" transform="translate(4546.140625 0)"/>
     <use xlink:href="#DejaVuSans-57" transform="translate(4607.421875 0)"/>
     <use xlink:href="#DejaVuSans-48" transform="translate(4646.625 0)"/>
     <use xlink:href="#DejaVuSans-3" transform="translate(4708.15625 0)"/>
     <use xlink:href="#DejaVuSans-3" transform="translate(4739.9375 0)"/>
     <use xlink:href="#DejaVuSans-3" transform="translate(4771.71875 0)"/>
     <use xlink:href="#DejaVuSans-5f" transform="translate(4803.5 0)"/>
     <use xlink:href="#DejaVuSans-3" transform="translate(4837.1875 0)"/>
     <use xlink:href="#DejaVuSans-3" transform="translate(4868.96875 0)"/>
     <use xlink:href="#DejaVuSans-3" transform="translate(4900.75 0)"/>
     <use xlink:href="#DejaVuSans-37" transform="translate(4932.53125 0)"/>
     <use xlink:href="#DejaVuSans-52" transform="translate(4976.625 0)"/>
     <use xlink:href="#DejaVuSans-57" transform="translate(5037.8125 0)"/>
     <use xlink:href="#DejaVuSans-44" transform="translate(5077.015625 0)"/>
     <use xlink:href="#DejaVuSans-4f" transform="translate(5138.296875 0)"/>
     <use xlink:href="#DejaVuSans-3" transform="translate(5166.078125 0)"/>
     <use xlink:href="#DejaVuSans-52" transform="translate(5197.859375 0)"/>
     <use xlink:href="#DejaVuSans-45" transform="translate(5259.046875 0)"/>
     <use xlink:href="#DejaVuSans-56" transform="translate(5322.53125 0)"/>
     <use xlink:href="#DejaVuSans-48" transform="translate(5374.625 0)"/>
     <use xlink:href="#DejaVuSans-55" transform="translate(5436.15625 0)"/>
     <use xlink:href="#DejaVuSans-59" transform="translate(5477.265625 0)"/>
     <use xlink:href="#DejaVuSans-44" transform="translate(5536.453125 0)"/>
     <use xlink:href="#DejaVuSans-45" transform="translate(5597.734375 0)"/>
     <use xlink:href="#DejaVuSans-4f" transform="translate(5661.21875 0)"/>
     <use xlink:href="#DejaVuSans-48" transform="translate(5689 0)"/>
     <use xlink:href="#DejaVuSans-1d" transform="translate(5750.53125 0)"/>
     <use xlink:href="#DejaVuSans-3" transform="translate(5784.21875 0)"/>
     <use xlink:href="#DejaVuSans-51" transform="translate(5816 0)"/>
     <use xlink:href="#DejaVuSans-52" transform="translate(5879.375 0)"/>
     <use xlink:href="#DejaVuSans-57" transform="translate(5940.5625 0)"/>
     <use xlink:href="#DejaVuSans-3" transform="translate(5979.765625 0)"/>
     <use xlink:href="#DejaVuSans-4c" transform="translate(6011.546875 0)"/>
     <use xlink:href="#DejaVuSans-51" transform="translate(6039.328125 0)"/>
     <use xlink:href="#DejaVuSans-49" transform="translate(6102.703125 0)"/>
     <use xlink:href="#DejaVuSans-48" transform="translate(6137.90625 0)"/>
     <use xlink:href="#DejaVuSans-55" transform="translate(6199.4375 0)"/>
     <use xlink:href="#DejaVuSans-55" transform="translate(6238.796875 0)"/>
     <use xlink:href="#DejaVuSans-48" transform="translate(6277.703125 0)"/>
     <use xlink:href="#DejaVuSans-47" transform="translate(6339.234375 0)"/>
    </g>
   </g>
  </g>
 </g>
 <defs>
  <clipPath id="p1ef886dc52">
   <rect x="3.00024" y="3.00024" width="893.99952" height="368.39952"/>
  </clipPath>
 </defs>
</svg>
