<svg xmlns="http://www.w3.org/2000/svg" width="900" height="560" viewBox="0 0 900 560">
<rect width="100%" height="100%" fill="white"/>
<style>text{font-family:Arial,sans-serif;fill:#222}.tick{font-size:13px}.label{font-size:15px}.title{font-size:20px;font-weight:600}.legend{font-size:12px}</style>
<text class="title" x="450.0" y="27" text-anchor="middle">gravity_gradient literature/model anchors</text>
<line x1="95.000" y1="45" x2="95.000" y2="475" stroke="#ddd"/>
<text class="tick" x="95.000" y="498" text-anchor="middle">1e-3</text>
<line x1="353.333" y1="45" x2="353.333" y2="475" stroke="#ddd"/>
<text class="tick" x="353.333" y="498" text-anchor="middle">1e-2</text>
<line x1="611.667" y1="45" x2="611.667" y2="475" stroke="#ddd"/>
<text class="tick" x="611.667" y="498" text-anchor="middle">1e-1</text>
<line x1="870.000" y1="45" x2="870.000" y2="475" stroke="#ddd"/>
<text class="tick" x="870.000" y="498" text-anchor="middle">1e0</text>
<line x1="95" y1="475.000" x2="870" y2="475.000" stroke="#ddd"/>
<text class="tick" x="83" y="479.000" text-anchor="end">1e-12</text>
<line x1="95" y1="367.500" x2="870" y2="367.500" stroke="#ddd"/>
<text class="tick" x="83" y="371.500" text-anchor="end">1e-11</text>
<line x1="95" y1="260.000" x2="870" y2="260.000" stroke="#ddd"/>
<text class="tick" x="83" y="264.000" text-anchor="end">1e-10</text>
<line x1="95" y1="152.500" x2="870" y2="152.500" stroke="#ddd"/>
<text class="tick" x="83" y="156.500" text-anchor="end">1e-9</text>
<line x1="95" y1="45.000" x2="870" y2="45.000" stroke="#ddd"/>
<text class="tick" x="83" y="49.000" text-anchor="end">1e-8</text>
<rect x="95" y="45" width="775" height="430" fill="none" stroke="#222"/>
<text class="label" x="482.5" y="535" text-anchor="middle">Frequency (Hz)</text>
<text class="label" transform="translate(23 260.0) rotate(-90)" text-anchor="middle">ASD (s^-2 Hz^-1/2)</text>
<polyline points="275.567,399.861 611.667,399.861" fill="none" stroke="#0072B2" stroke-width="3"/>
<line x1="107" y1="62" x2="135" y2="62" stroke="#0072B2" stroke-width="3"/>
<text class="legend" x="142" y="66">goce_egg_conservative_design_anchor</text>
<polyline points="95.000,87.779 870.000,87.779" fill="none" stroke="#D55E00" stroke-width="3"/>
<line x1="107" y1="81" x2="135" y2="81" stroke="#D55E00" stroke-width="3"/>
<text class="legend" x="142" y="85">mcguirk_atom_gradiometer_anchor</text>
</svg>
